<svg xmlns="http://www.w3.org/2000/svg" width="200" height="64.25" viewBox="0 0 200 64.25"><title>navLogo</title><path d="M83.27,41a2.09,2.09,0,0,1-.72,1.66,2.6,2.6,0,0,1-1.78.63c-1.22,0-1.85-.45-1.9-1.35-.18-3.8-.48-7.32-.89-10.54a20.29,20.29,0,0,1-2,4.06,24.21,24.21,0,0,0-1.94,4c-.42,1-.88,1.47-1.4,1.47a.84.84,0,0,1-.35-.07Q69.8,40,68.09,35.63l-1.26-3.16c0,1.13-.1,2.45-.16,4-.08,1.74-.15,2.82-.23,3.23-.31,1.47-.92,2.2-1.83,2.2a2.31,2.31,0,0,1-1.4-.5,1.47,1.47,0,0,1-.73-1.22A38.14,38.14,0,0,1,63,35.7c.42-2.64.65-4.26.68-4.86l.3-5.06a1.19,1.19,0,0,1,.54-1,2,2,0,0,1,1.11-.33c1,0,1.43.38,1.4,1.15q.8,2.13,1.49,4.74a13.44,13.44,0,0,0,1,2.56c.6,1.21,1.17,1.81,1.72,1.81.88,0,2-1.66,3.46-5q.27-.64,2.58-6.39a1.58,1.58,0,0,1,.59-1.24,1.91,1.91,0,0,1,1.29-.55c.54,0,.9.34,1.1,1,.08.24.25,1.07.53,2.47q.57,2.71,1.07,6.48.76,5.41.94,6.48l.28,1.47A9.06,9.06,0,0,1,83.27,41Z" fill="#314fae"/><path d="M116.59,42a3.29,3.29,0,0,1-1.08-.11,1.31,1.31,0,0,1-.68-.78c-.37-.79-.85-2-1.45-3.59L112,33.8a47.62,47.62,0,0,0-2.24-5q-.42-.73-.81-1.47a3.74,3.74,0,0,1-.52-1.46,2.32,2.32,0,0,1,.5-1.39,1.46,1.46,0,0,1,1.17-.68,1.19,1.19,0,0,1,.92.58,22,22,0,0,1,1.53,2.74L113.93,30l2.52,5.25a63.94,63.94,0,0,1,3.46-5.64,45.89,45.89,0,0,0,3.37-5.7c.13-.33.42-1,.87-1.92A1.61,1.61,0,0,1,125.68,21a1.64,1.64,0,0,1,1.07.39,1.22,1.22,0,0,1,.47,1,2.38,2.38,0,0,1-.12.68,41.54,41.54,0,0,1-4.26,9.53A52.48,52.48,0,0,0,120,37.81l-1.17,2.77A2.24,2.24,0,0,1,116.59,42Z" fill="#314fae"/><path d="M135.57,42c-.53,0-1,0-1.28,0a11.89,11.89,0,0,1-3.34-.87c-1.54-.63-2.31-1.3-2.31-2a1.81,1.81,0,0,1,.58-1.3,1.77,1.77,0,0,1,1.29-.6,3.28,3.28,0,0,1,1.06.23,17,17,0,0,0,5.54,1.19,11.82,11.82,0,0,0,3.57-.57c1.63-.52,2.45-1.23,2.45-2.13s-.91-1.85-2.75-2.61a17,17,0,0,0-3.89-1.1l-5.22-.55A1.21,1.21,0,0,1,130,30.27a6.66,6.66,0,0,1,1.49-3.69,14.72,14.72,0,0,1,2.79-2.93,5.88,5.88,0,0,1,3.14-1.49,11.39,11.39,0,0,1,2.15.28c1.15.26,1.86.41,2.13.46a2.43,2.43,0,0,1,1.74,1.17,2.4,2.4,0,0,1,.49,1.21,1.27,1.27,0,0,1-.38.88,1.14,1.14,0,0,1-.86.4,1.71,1.71,0,0,1-1.19-.64,5.54,5.54,0,0,0-2.13-.41l-1.17-.09c-.49-.05-.88-.07-1.17-.07a3,3,0,0,0-2,1.09,3,3,0,0,0-1.09,2c0,.47.44.72,1.33.76a25.11,25.11,0,0,1,6.78.89q4.62,1.48,4.62,4.37a5,5,0,0,1-1.19,3.09,10.82,10.82,0,0,1-4.44,3.37A14,14,0,0,1,135.57,42Z" fill="#314fae"/><path d="M162.46,42.55a2.25,2.25,0,0,1-1.28-.42,1.3,1.3,0,0,1-.69-1.1c0-.45.08-1.9.23-4.35-.32,0-.8,0-1.44,0l-1.47,0a14.7,14.7,0,0,0-4.92.71l0,1.14c0,1.71-.56,2.57-1.76,2.57a2.33,2.33,0,0,1-1.35-.39,1.28,1.28,0,0,1-.67-1.19l0-.09.28-7.19c0-.77,0-2.58-.14-5.46q0-.31-.09-1.32c0-.38,0-.81,0-1.29A1.45,1.45,0,0,1,149.7,23a1.9,1.9,0,0,1,1.26-.46c.68,0,1.11.51,1.31,1.53,0,.17.08.94.14,2.32s.1,2.22.13,2.86l.3,5.31a51.12,51.12,0,0,1,8.11-.94V32.36c-.19-.51-.28-2.76,0-6.76v-.11c-.48-.43-.29-.79.09-1.07A2.08,2.08,0,0,1,162.3,24a1.06,1.06,0,0,1,1.19,1c.15,1,.27,2.36.37,4.12l.2,4.19q.25,5.13.25,6a7.42,7.42,0,0,1-.2,2.13A1.59,1.59,0,0,1,162.46,42.55Z" fill="#314fae"/><ellipse cx="178.08" cy="32.18" rx="9.22" ry="9.66" fill="#314fae"/><circle cx="179.39" cy="29.55" r="3.51" fill="#e9e9e9" opacity="0.86"/><ellipse cx="96.42" cy="32.18" rx="9.22" ry="9.66" fill="#314fae"/><circle cx="98.61" cy="29.55" r="3.51" fill="#e9e9e9" opacity="0.86"/><path d="M48.61,19.34c-1.39-.47-3,.67-4,.2-2.07-.91-4.07-3.4-6.81-4.62l.06-.57a.89.89,0,0,1,.44-.72L43,11.2l.13.3a.15.15,0,0,0,.15.07l2-.56a.13.13,0,0,0,.08-.17L44.55,9a.12.12,0,0,0-.18,0l-1.74,1.12a.13.13,0,0,0,0,.16l.16.37-4.91,2.57a.92.92,0,0,0-.44.7l-.1.84A7.51,7.51,0,0,0,35,14.23l0-1.64L35,9.19h.61c.08.07.15,0,.16-.06l.4-2.39c0-.09-.06-.17-.16-.38H33.44c-.09.21-.17.29-.15.38l.39,2.39c0,.07.08.13.16.06h.61l.07,3.4,0,1.64a7.58,7.58,0,0,0-2.52.5L31.9,14a.94.94,0,0,0-.45-.73l-4.88-2.55.16-.37a.12.12,0,0,0,0-.16L25,9.07a.14.14,0,0,0-.19.06L23.94,11a.13.13,0,0,0,.08.17l2,.55a.13.13,0,0,0,.15-.06l.13-.3L31,13.73a.92.92,0,0,1,.44.74l0,.46c-2.73,1.23-4.72,3.71-6.78,4.61-1.05.47-2.62-.67-4-.2-2.61.88-9.34,1.15-7.76,1.84,5.3,2.3,4.81,5.28,5.67,5.06,2.46-.61,2.7-3.06,4.55-1.38.29.26.61-.11.95-.7a10.39,10.39,0,0,0,5.73,6.66c-2.09,2.5-5.31,5.78-6.9,10.52-.32,1-.83,3.46.27,3.32.85-.11,3.27-2.88,5.67-5.95-.16.75-.3,1.54-.42,2.34-.55,3.61.63,5.64,2.45,6.68l-.12,5.21c0,.7-1,1.67-2.76,1.8-1.22.1-4.6-.4-4.81,1.2-.16,1.21,2.48,1.85,3.4,1.94,1.51.15,5.87-2.06,5.87-2.06,1.16-.41,1.83-1,1.89-1.49l.54-5.65h.33l.52,5.18c0,.52.73,1,1.89,1.41,0,0,4.35,2.08,5.86,1.94.93-.08,3.56-.69,3.41-1.84-.21-1.51-3.59-1-4.81-1.12-1.73-.13-2.75-1-2.76-1.7,0-1.06-.09-3.64-.12-5,1.65-1.1,2.69-3.12,2.39-6.52a20.73,20.73,0,0,0-.34-2.42c2.42,3.1,4.88,5.92,5.73,6,1.1.14.59-2.36.27-3.32-1.66-4.94-5.11-8.29-7.18-10.86a10.23,10.23,0,0,0,5.09-6.32c.33.59.66,1,.94.7,1.85-1.68,2.1.77,4.56,1.38.85.22.37-2.76,5.66-5.06C57.94,20.49,51.21,20.22,48.61,19.34ZM38.16,17A2.27,2.27,0,1,1,36,19.24,2.22,2.22,0,0,1,38.16,17Zm-7.39,0a2.27,2.27,0,1,1-2.18,2.26A2.22,2.22,0,0,1,30.77,17Zm4.06,12.69c-3.62.3-8.23-1.75-8.23-5.42,0-1.7,4.6-.37,8.23-.37s7.52-1.32,7.6.37C42.53,26.55,39.05,29.33,34.83,29.67Z" fill="#f9ba00"/><ellipse cx="30.86" cy="18.66" rx="0.76" ry="0.84" fill="#f9ba00"/><ellipse cx="38.58" cy="18.66" rx="0.76" ry="0.84" fill="#f9ba00"/></svg>