<svg xmlns="http://www.w3.org/2000/svg" width="179.63" height="51.53" viewBox="0 0 179.63 51.53"><title>navLogo_1</title><path d="M35.9,13c-1.38-.47-2.95.67-4,.2-2.06-.91-4.06-3.4-6.8-4.62L25.16,8a.89.89,0,0,1,.44-.72l4.72-2.43.13.3a.12.12,0,0,0,.15.06l2-.55a.12.12,0,0,0,.08-.17l-.82-1.83a.13.13,0,0,0-.18-.06L29.93,3.72a.14.14,0,0,0-.05.16l.17.37L25.14,6.82a.87.87,0,0,0-.44.7l-.1.83a7.8,7.8,0,0,0-2.35-.48l0-1.64.07-3.41h.61c.08.08.14,0,.16,0l.4-2.39c0-.09-.06-.17-.16-.38H20.74c-.1.21-.17.29-.16.38L21,2.77a.09.09,0,0,0,.16,0h.61l.06,3.41,0,1.64a7.39,7.39,0,0,0-2.52.5l-.07-.72a.89.89,0,0,0-.44-.73L13.86,4.36,14,4a.13.13,0,0,0,0-.15L12.24,2.71a.13.13,0,0,0-.18.06L11.24,4.6a.12.12,0,0,0,.08.17l2,.55a.12.12,0,0,0,.15-.07L13.6,5l4.69,2.42a.91.91,0,0,1,.45.74l0,.46c-2.72,1.23-4.71,3.7-6.78,4.61-1.05.47-2.61-.67-4-.2-2.61.88-9.34,1.15-7.76,1.84,5.29,2.3,4.81,5.27,5.66,5.06,2.46-.61,2.71-3.07,4.56-1.38.28.26.61-.11.94-.71a10.36,10.36,0,0,0,5.74,6.66C15.05,27,11.83,30.24,10.24,35c-.32,1-.83,3.46.26,3.32.85-.12,3.28-2.88,5.68-5.95-.17.75-.3,1.54-.43,2.34-.55,3.61.64,5.64,2.46,6.68l-.12,5.21c0,.7-1,1.66-2.77,1.8-1.22.1-4.6-.4-4.8,1.2-.16,1.21,2.47,1.85,3.4,1.94,1.51.15,5.87-2.06,5.87-2.06,1.15-.41,1.83-1,1.88-1.5l.55-5.64h.32l.53,5.19c.05.52.73,1,1.88,1.41,0,0,4.36,2.08,5.87,1.94.93-.09,3.56-.69,3.4-1.84-.2-1.51-3.58-1-4.8-1.12-1.73-.13-2.75-1-2.77-1.7,0-1.06-.08-3.65-.11-5,1.64-1.1,2.69-3.12,2.39-6.52-.08-.83-.19-1.64-.34-2.42,2.42,3.1,4.87,5.91,5.73,6,1.09.14.59-2.37.26-3.32-1.65-4.94-5.1-8.29-7.18-10.86a10.26,10.26,0,0,0,5.1-6.33c.33.6.65,1,.94.71,1.85-1.69,2.09.77,4.55,1.38.86.21.37-2.76,5.67-5.06C45.24,14.13,38.51,13.86,35.9,13ZM25.45,10.62a2.27,2.27,0,1,1-2.18,2.26A2.22,2.22,0,0,1,25.45,10.62Zm-7.38,0a2.27,2.27,0,1,1-2.18,2.26A2.22,2.22,0,0,1,18.07,10.62Zm4.06,12.69c-3.63.3-8.24-1.75-8.24-5.42,0-1.7,4.61-.37,8.24-.37s7.52-1.32,7.59.37C29.83,20.19,26.34,23,22.13,23.31Z" fill="#f9ba00"/><path d="M70,35.09a2.18,2.18,0,0,1-.76,1.74,2.72,2.72,0,0,1-1.87.67c-1.28,0-2-.48-2-1.42q-.28-6-.94-11.09a21.31,21.31,0,0,1-2.07,4.27,25.52,25.52,0,0,0-2,4.21c-.43,1-.92,1.55-1.46,1.55a1,1,0,0,1-.37-.08c-1.76-.57-3.25-2.41-4.45-5.49L52.7,26.13c-.05,1.19-.1,2.57-.17,4.16-.08,1.84-.16,3-.24,3.4Q51.81,36,50.37,36a2.33,2.33,0,0,1-1.47-.53,1.52,1.52,0,0,1-.78-1.27,42.42,42.42,0,0,1,.58-4.68q.67-4.17.72-5.1l.32-5.33a1.27,1.27,0,0,1,.56-1,2.09,2.09,0,0,1,1.17-.35c1,0,1.5.41,1.47,1.21a50.85,50.85,0,0,1,1.57,5,14.22,14.22,0,0,0,1,2.7c.63,1.27,1.23,1.91,1.81,1.91.93,0,2.14-1.76,3.64-5.26q.28-.68,2.72-6.72a1.63,1.63,0,0,1,.62-1.3,2,2,0,0,1,1.36-.58c.56,0,.94.36,1.15,1.06.08.26.27,1.13.56,2.61q.6,2.83,1.13,6.81c.53,3.79.86,6.07,1,6.82l.29,1.54A10.23,10.23,0,0,1,70,35.09Z" fill="#314fae"/><path d="M105.05,36.12a3.45,3.45,0,0,1-1.13-.12,1.4,1.4,0,0,1-.73-.82c-.38-.83-.89-2.09-1.51-3.78l-1.45-3.88a49.42,49.42,0,0,0-2.36-5.25c-.29-.51-.57-1-.84-1.54a4,4,0,0,1-.56-1.54A2.43,2.43,0,0,1,97,17.73,1.55,1.55,0,0,1,98.23,17a1.22,1.22,0,0,1,1,.6,23.77,23.77,0,0,1,1.61,2.89l1.44,3.06,2.65,5.52c.65-1.27,1.86-3.24,3.64-5.93a47.2,47.2,0,0,0,3.54-6c.15-.35.45-1,.92-2A1.68,1.68,0,0,1,114.61,14a1.72,1.72,0,0,1,1.12.41,1.28,1.28,0,0,1,.5,1,2.69,2.69,0,0,1-.12.73,44.68,44.68,0,0,1-4.48,10,53.48,53.48,0,0,0-3,5.54l-1.23,2.91A2.36,2.36,0,0,1,105.05,36.12Z" fill="#314fae"/><path d="M125,36.15c-.56,0-1,0-1.35,0a12.68,12.68,0,0,1-3.52-.92c-1.62-.65-2.43-1.37-2.43-2.14a1.93,1.93,0,0,1,.62-1.37A1.86,1.86,0,0,1,119.7,31a3.27,3.27,0,0,1,1.1.24,17.74,17.74,0,0,0,5.83,1.25,12.45,12.45,0,0,0,3.76-.6c1.72-.54,2.58-1.29,2.58-2.24s-1-1.94-2.89-2.74a18.35,18.35,0,0,0-4.1-1.16l-5.49-.58a1.28,1.28,0,0,1-1.3-1.4,6.93,6.93,0,0,1,1.57-3.87,14.44,14.44,0,0,1,2.94-3.09,6.11,6.11,0,0,1,3.3-1.56,11.82,11.82,0,0,1,2.26.28c1.2.28,2,.44,2.24.49a2.58,2.58,0,0,1,1.83,1.23,2.6,2.6,0,0,1,.51,1.27,1.35,1.35,0,0,1-.4.93,1.21,1.21,0,0,1-.9.42,1.84,1.84,0,0,1-1.26-.67A5.74,5.74,0,0,0,129,18.8l-1.22-.09c-.52-.05-.93-.08-1.23-.08a3.19,3.19,0,0,0-2.11,1.15,3.14,3.14,0,0,0-1.15,2.11c0,.49.47.76,1.4.79a26.9,26.9,0,0,1,7.13.94q4.88,1.57,4.87,4.6a5.3,5.3,0,0,1-1.25,3.25A11.37,11.37,0,0,1,130.8,35,14.86,14.86,0,0,1,125,36.15Z" fill="#314fae"/><path d="M153.3,36.73a2.43,2.43,0,0,1-1.35-.44,1.37,1.37,0,0,1-.72-1.15c0-.49.08-2,.24-4.58l-1.52,0-1.54,0a15.66,15.66,0,0,0-5.18.75l0,1.2q0,2.7-1.86,2.7a2.5,2.5,0,0,1-1.42-.41,1.35,1.35,0,0,1-.7-1.25l0-.1.29-7.56c0-.81,0-2.72-.15-5.74,0-.22,0-.69-.1-1.39,0-.4,0-.85,0-1.35a1.54,1.54,0,0,1,.57-1.23,2,2,0,0,1,1.33-.48c.71,0,1.16.54,1.37,1.61q0,.27.15,2.43c.06,1.34.11,2.34.14,3l.31,5.58a52.62,52.62,0,0,1,8.54-1V26c-.2-.53-.3-2.9,0-7.11v-.12c-.51-.45-.31-.82.09-1.12a2.15,2.15,0,0,1,1.32-.45,1.13,1.13,0,0,1,1.26,1.06c.16,1.05.29,2.49.38,4.34L155,27c.18,3.6.26,5.68.26,6.26a8,8,0,0,1-.21,2.24A1.68,1.68,0,0,1,153.3,36.73Z" fill="#314fae"/><ellipse cx="83.4" cy="25.76" rx="10.42" ry="10.82" fill="#314fae"/><ellipse cx="83.8" cy="22.96" rx="3.61" ry="4.01" fill="#e9e9e9" opacity="0.86"/><ellipse cx="169.21" cy="25.76" rx="10.42" ry="10.82" fill="#314fae"/><ellipse cx="169.61" cy="22.96" rx="3.61" ry="4.01" fill="#e9e9e9" opacity="0.86"/></svg>