<svg xmlns="http://www.w3.org/2000/svg" xmlns:xlink="http://www.w3.org/1999/xlink" width="266.94" height="266.94" viewBox="0 0 266.94 266.94"><defs><radialGradient id="a" cx="133.18" cy="132.71" r="97.11" gradientTransform="translate(-0.27 -0.27)" gradientUnits="userSpaceOnUse"><stop offset="0" stop-color="#1100cd"/><stop offset="1" stop-color="#000815"/></radialGradient><clipPath id="b"><path d="M166.78,94c-3.72-1.26-7.92,1.79-10.74.55-7.49-3.29-14.62-14.29-26.75-14.29s-19.26,11-26.75,14.29c-2.83,1.24-7-1.81-10.74-.55-7,2.38-25.1,3.1-20.85,4.95,14.23,6.18,12.93,14.17,15.22,13.6,6.62-1.65,7.28-8.24,12.24-3.71.77.7,1.64-.29,2.54-1.9,1.61,7.13,7.46,14.09,15.41,17.9-5.61,6.74-14.26,15.54-18.53,28.27-.87,2.57-2.23,9.31.7,8.92,2.29-.3,8.81-7.73,15.25-16-.44,2-.81,4.14-1.14,6.3-1.47,9.7,1.71,15.15,6.6,18-.09,3.84-.26,11-.32,14,0,1.88-2.78,4.48-7.44,4.85-3.27.26-12.35-1.08-12.91,3.21-.43,3.27,6.65,5,9.14,5.23,4.06.39,15.77-5.56,15.77-5.56,3.1-1.09,4.93-2.53,5.07-4L130,172.84h.88l1.4,13.93c.14,1.39,2,2.75,5.07,3.78,0,0,11.71,5.6,15.76,5.22,2.49-.23,9.57-1.87,9.15-5-.56-4-9.64-2.77-12.91-3-4.66-.34-7.39-2.79-7.43-4.57-.07-2.83-.23-9.79-.31-13.37,4.42-3,7.23-8.39,6.42-17.52a62.8,62.8,0,0,0-.91-6.5c6.49,8.34,13.1,15.89,15.4,16.19,2.94.39,1.57-6.35.71-8.92C158.79,139.85,149.52,130.85,144,124c7.06-3.94,12.18-10.39,13.68-17,.89,1.61,1.77,2.6,2.53,1.9,5-4.53,5.63,2.06,12.24,3.71,2.3.57,1-7.42,15.22-13.6C191.87,97.11,173.79,96.39,166.78,94Z" fill="#f9ba00"/></clipPath><clipPath id="c"><path d="M146.08,108.52c.21,4.88-7.18,10.77-16.11,11.51-7.69.63-17.48-3.71-17.48-11.51,0-3.59,9.77-.77,17.48-.77S145.92,104.93,146.08,108.52Z" fill="#321f00" stroke="#f9ba00" stroke-miterlimit="10" stroke-width="1.05"/></clipPath><radialGradient id="d" cx="128.37" cy="219.04" r="55.03" gradientTransform="translate(8.15 -58.03) scale(0.98 1.24)" gradientUnits="userSpaceOnUse"><stop offset="0" stop-color="#11006a"/><stop offset="1" stop-color="#000815"/></radialGradient></defs><title>carmenSandiegoMovsho</title><rect width="266.94" height="266.94" fill="#f7f7f7"/><rect width="266.94" height="266.94" fill="#000815"/><circle cx="133.18" cy="132.71" r="97.31" stroke="#314fae" stroke-miterlimit="10" stroke-width="2" fill="url(#a)"/><path d="M43.37,58.35,56.28,72.61,53.9,76.18l-12-4.3,8.62,9.31-2.37,3.55L30,78.37l2.48-3.71,10.9,4.18.58.21.56.19-8.75-9.51L38,66.37,50.2,70.74c-.16-.18-.44-.48-.83-.88l-8-8.52Z" fill="#314fae"/><path d="M49.56,52.33l4.77,4.74a3.87,3.87,0,0,1,1.1-4.17,4.42,4.42,0,0,1,2.11-1.26,3.36,3.36,0,0,1,2.09.11,7.69,7.69,0,0,1,2.28,1.69l6.46,6.43L65.5,62.76,60,57.27A10.21,10.21,0,0,0,58.54,56a1.53,1.53,0,0,0-1-.26,1.38,1.38,0,0,0-.93.44A2.41,2.41,0,0,0,56,57.67c-.08.64.35,1.41,1.27,2.32l5.52,5.5L60,68.29,46.77,55.13Z" fill="#314fae"/><path d="M76.64,45.71,69.52,51l.37.53a2.93,2.93,0,0,0,2,1.31,2.61,2.61,0,0,0,2-.52,2.31,2.31,0,0,0,.66-3.2l3.12-2q1.62,4.76-2.17,7.59a6.91,6.91,0,0,1-3.3,1.43,6.61,6.61,0,0,1-3.35-.51,7.42,7.42,0,0,1-3-2.49,7.52,7.52,0,0,1-1.68-5.39,6.64,6.64,0,0,1,7.46-5.73Q74.19,42.41,76.64,45.71Zm-8.55,3.43L72,46.2q-1.86-2.16-3.58-.88T68.09,49.14Z" fill="#314fae"/><path d="M85.6,47.8l-3.43,2-6.85-12,3.23-1.85,1.28,2.23c-.45-1.94-.06-3.27,1.16-4q.27-.15.66-.33l2,3.49a4,4,0,0,0-1.49,1.29,2.81,2.81,0,0,0-.3,1.75,6.76,6.76,0,0,0,1,2.54Z" fill="#314fae"/><path d="M99.14,34.68,91,38.13c.08.23.16.43.23.59a2.9,2.9,0,0,0,1.59,1.75,2.65,2.65,0,0,0,2,0,2.32,2.32,0,0,0,1.41-2.95l3.5-1.18q.44,5-3.92,6.84a7.05,7.05,0,0,1-3.55.6,6.55,6.55,0,0,1-3.13-1.3,7.34,7.34,0,0,1-2.34-3.14,7.52,7.52,0,0,1-.33-5.63,6.64,6.64,0,0,1,8.61-3.78Q97.54,30.89,99.14,34.68ZM90,36l4.52-1.9q-1.28-2.55-3.26-1.71T90,36Z" fill="#314fae"/><path d="M109.88,18.67l.88,4-4,.88-.88-4ZM111,23.78l3,13.48-4,.88-3-13.47Z" fill="#314fae"/><path d="M128.69,35.31l-4,.44L123.82,28a11,11,0,0,0-.31-1.9,1.57,1.57,0,0,0-1.72-1.07c-1.43.15-2,1.28-1.8,3.38l.82,7.71-4,.43L115.3,22.86l3.76-.4.25,2.32a5.32,5.32,0,0,1,1.62-2.33,4.14,4.14,0,0,1,1.92-.68,4.68,4.68,0,0,1,3.27.71c.87.62,1.41,2,1.63,4Z" fill="#314fae"/><path d="M143.67,25.26l-.49,5.82a2.28,2.28,0,0,0,.21,1.48c.19.26.69.43,1.5.5.37,0,.8,0,1.29,0l-.25,3a18.28,18.28,0,0,1-2.57.09,5.37,5.37,0,0,1-3.52-1.28c-.65-.71-.91-1.91-.76-3.61l.53-6.4-2.18-.19.27-3.16,2.41.21.67-4,3.52,0-.36,4.33,2.95.25-.26,3.16Z" fill="#314fae"/><path d="M155.16,18.81l-1.38,6.58a3.87,3.87,0,0,1,4.1-1.35,4.44,4.44,0,0,1,2.21,1.09,3.36,3.36,0,0,1,1,1.81,7.65,7.65,0,0,1-.18,2.83l-1.88,8.92-4-.83,1.6-7.63a11.25,11.25,0,0,0,.29-1.89,1.64,1.64,0,0,0-.31-1,1.42,1.42,0,0,0-.88-.54,2.51,2.51,0,0,0-1.61.27c-.57.29-1,1.07-1.25,2.34l-1.6,7.62-3.87-.81L151.3,18Z" fill="#314fae"/><path d="M175.44,37.94l-8.33-3.1-.24.6a3,3,0,0,0,0,2.36,2.64,2.64,0,0,0,1.5,1.36,2.32,2.32,0,0,0,3-1.18l3.37,1.54q-3.12,3.94-7.55,2.3a7,7,0,0,1-3-2,6.54,6.54,0,0,1-1.39-3.09,7.46,7.46,0,0,1,.45-3.89,7.5,7.5,0,0,1,3.61-4.33,6.65,6.65,0,0,1,8.87,3.15C176.49,33.27,176.39,35.37,175.44,37.94Zm-7.52-5.32,4.6,1.71q.81-2.73-1.2-3.48C169.89,30.32,168.75,30.91,167.92,32.62Z" fill="#314fae"/><path d="M203.81,46.36l-11.22,9.06-3-2,3.19-8.58L186,51,183.2,49l4.24-13.82L191,37.6l-2.89,8.24,6.5-5.78,3,2.08-3.11,8.15,6.72-5.7Z" fill="#314fae"/><path d="M210.43,52.44a6.16,6.16,0,0,1,2.11,4.9,7.71,7.71,0,0,1-2.31,4.95,7.36,7.36,0,0,1-4.87,2.4,6.23,6.23,0,0,1-4.93-1.92,6,6,0,0,1-2-4.73,7.59,7.59,0,0,1,2.34-5,7.92,7.92,0,0,1,3.17-2.14,6.63,6.63,0,0,1,3.3-.27A6.19,6.19,0,0,1,210.43,52.44Zm-1.77,2a2,2,0,0,0-1.88-.56,7.34,7.34,0,0,0-2.9,2.15,8.05,8.05,0,0,0-2,2.92,1.85,1.85,0,0,0,.51,2,2,2,0,0,0,1.84.51,6.46,6.46,0,0,0,2.87-2,8,8,0,0,0,2.15-3.05A1.88,1.88,0,0,0,208.66,54.43Z" fill="#314fae"/><path d="M209.17,71.92l-2.49-3.07,10.7-8.71L219.74,63l-2,1.62q2.76-1.14,4.1.5c.13.16.27.36.44.6l-3.12,2.54A4,4,0,0,0,217.65,67a2.72,2.72,0,0,0-1.77,0,6.67,6.67,0,0,0-2.35,1.35Z" fill="#314fae"/><path d="M212.43,76.2l15.41-10.53,2.3,3.37L214.73,79.56Z" fill="#314fae"/><path d="M238.37,83.49,221.9,92.25l-1.77-3.32,1.91-1a4.25,4.25,0,0,1-3.95-2.21,4.19,4.19,0,0,1,0-4.06,8.86,8.86,0,0,1,3.94-3.6,9.57,9.57,0,0,1,5.38-1.37,4.34,4.34,0,0,1,3.52,2.47A3.87,3.87,0,0,1,231,83l5.57-3ZM227.13,85q2.87-1.53,1.94-3.28c-.74-1.38-2.46-1.36-5.16.08-2.41,1.28-3.26,2.57-2.57,3.87a1.91,1.91,0,0,0,1.35,1,3.09,3.09,0,0,0,2.16-.42Z" fill="#314fae"/><path d="M239.68,100.86l-13.16,4.2-1.23-3.88L238.44,97Zm5-1.59-3.89,1.24-1.23-3.88,3.88-1.24Z" fill="#314fae"/><path d="M239.77,115.78,238.39,113a2.48,2.48,0,0,0,1.28-3c-.28-1.34-.83-1.92-1.64-1.75a1,1,0,0,0-.7.53,4.86,4.86,0,0,0-.08,2,18.17,18.17,0,0,1,0,3.57,3.62,3.62,0,0,1-1,2,4.21,4.21,0,0,1-2.21,1.14,4.29,4.29,0,0,1-3.73-.88,6.94,6.94,0,0,1-2.24-4.16q-1.08-5.16,2.71-7l1.2,3.25c-1.16.53-1.55,1.66-1.19,3.38a3.63,3.63,0,0,0,.7,1.6,1.11,1.11,0,0,0,1.1.48c.63-.13.89-.71.8-1.75q-.36-4.2.44-5.71a3.7,3.7,0,0,1,2.69-1.91,4.07,4.07,0,0,1,3.5.83,6.49,6.49,0,0,1,2.14,3.94,6.3,6.3,0,0,1-.13,3.6A5.32,5.32,0,0,1,239.77,115.78Z" fill="#314fae"/><path d="M147.77,145.84c0,12.83,14.95,28.46,17.84,37.14,2.61,7.81-25.45,2.89-33.76,2.89-7.17,0-13,2.9-23.15,3.86-1.42.14-8.89-6.08-6.75-11.57,6.75-17.37,13.51-17.37,14-34.25.32-11.4-8.73-18.23-4.82-22.66,1.71-2,29.26-4.66,37.13-2.41C158.38,121.73,147.77,123.34,147.77,145.84Z" fill="#6d1600"/><path d="M166.78,94c-3.72-1.26-7.92,1.79-10.74.55-7.49-3.29-14.62-14.29-26.75-14.29s-19.26,11-26.75,14.29c-2.83,1.24-7-1.81-10.74-.55-7,2.38-25.1,3.1-20.85,4.95,14.23,6.18,12.93,14.17,15.22,13.6,6.62-1.65,7.28-8.24,12.24-3.71.77.7,1.64-.29,2.54-1.9,1.61,7.13,7.46,14.09,15.41,17.9-5.61,6.74-14.26,15.54-18.53,28.27-.87,2.57-2.23,9.31.7,8.92,2.29-.3,8.81-7.73,15.25-16-.44,2-.81,4.14-1.14,6.3-1.47,9.7,1.71,15.15,6.6,18-.09,3.84-.26,11-.32,14,0,1.88-2.78,4.48-7.44,4.85-3.27.26-12.35-1.08-12.91,3.21-.43,3.27,6.65,5,9.14,5.23,4.06.39,15.77-5.56,15.77-5.56,3.1-1.09,4.93-2.53,5.07-4L130,172.84h.88l1.4,13.93c.14,1.39,2,2.75,5.07,3.78,0,0,11.71,5.6,15.76,5.22,2.49-.23,9.57-1.87,9.15-5-.56-4-9.64-2.77-12.91-3-4.66-.34-7.39-2.79-7.43-4.57-.07-2.83-.23-9.79-.31-13.37,4.42-3,7.23-8.39,6.42-17.52a62.8,62.8,0,0,0-.91-6.5c6.49,8.34,13.1,15.89,15.4,16.19,2.94.39,1.57-6.35.71-8.92C158.79,139.85,149.52,130.85,144,124c7.06-3.94,12.18-10.39,13.68-17,.89,1.61,1.77,2.6,2.53,1.9,5-4.53,5.63,2.06,12.24,3.71,2.3.57,1-7.42,15.22-13.6C191.87,97.11,173.79,96.39,166.78,94Z" fill="#f9ba00"/><g clip-path="url(#b)"><path d="M126.62,83,150,168a1.5,1.5,0,0,0,2.94-.41L152.23,108c0-1.92-3.17-1.91-3.26,0l-2.6,54h3.26l2.9-65.17c.12-2.71-6.45-1.58-1.26,3.35l-2.22,58.12c-6.3,5.25.45,6.46.58,3.7l2.6-54H149l.74,58.65,3.2-.4-23.14-84c-.51-1.86-3.66-1.07-3.15.79Z" fill="#f9ba00"/></g><path d="M97.12,105.88c-3.09-2.82-3.5,1.28-7.61,2.3-1.42.36-.62-4.6-9.45-8.45-2.64-1.14,8.59-1.59,13-3.07,4.52-1.54,10.15,1.38,8.42,2.82C100.2,100.5,98.41,107.06,97.12,105.88Z" fill="#314fae"/><path d="M161.79,105.88c3.08-2.82,3.5,1.28,7.61,2.3,1.42.36.61-4.6,9.45-8.45,2.64-1.14-8.6-1.59-12.95-3.07-4.52-1.54-10.16,1.38-8.42,2.82C158.71,100.5,160.5,107.06,161.79,105.88Z" fill="#314fae"/><path d="M145,151.61c0-9.83-6.38-23.23-14.49-23.23s-14.85,13.4-14.85,23.23,6.57,17.8,14.67,17.8S145,161.44,145,151.61Z" fill="#314fae"/><path d="M146.08,108.52c.21,4.88-7.18,10.77-16.11,11.51-7.69.63-17.48-3.71-17.48-11.51,0-3.59,9.77-.77,17.48-.77S145.92,104.93,146.08,108.52Z" fill="#321f00"/><g clip-path="url(#c)"><ellipse cx="127.97" cy="117.47" rx="10" ry="5.5" fill="#742900"/><path d="M122.91,106.44a2.55,2.55,0,0,1-2.77,2.57,3.62,3.62,0,0,1-3.41-3.12c0-1.14.53-1.51,2.54-1.51S122.91,105.31,122.91,106.44Z" fill="#e2eff9"/><path d="M128.18,107.19c0,1.14-.73,3.29-2.74,3.29s-3.44-2.71-3.44-3.85.53-1.5,2.54-1.5S128.18,106.05,128.18,107.19Z" fill="#e2eff9"/><path d="M140.78,119.9c0-1.14-2.88-2.48-4.89-2.48s-1.29,1.9-1.29,3,.53,1.51,2.54,1.51S140.78,121,140.78,119.9Z" fill="#e2eff9"/><path d="M128.29,121.17c0-1.14.68-4-1.33-4a4.44,4.44,0,0,0-3.85,3.45c0,1.13.53,1.5,2.54,1.5S128.29,122.31,128.29,121.17Z" fill="#e2eff9"/><path d="M129.13,121.17c0-1.14-.67-4,1.34-4a4.44,4.44,0,0,1,3.85,3.45c0,1.13-.53,1.5-2.54,1.5S129.13,122.31,129.13,121.17Z" fill="#e2eff9"/><path d="M128.41,107.18c0,1.14.73,3.29,2.74,3.29s3.44-2.7,3.44-3.84-.53-1.51-2.54-1.51S128.41,106,128.41,107.18Z" fill="#e2eff9"/><path d="M116.52,120c0-1.14,2.88-2.49,4.89-2.49s1.29,1.9,1.29,3-.53,1.51-2.54,1.51S116.52,121.16,116.52,120Z" fill="#e2eff9"/><path d="M134.21,106.74A2.54,2.54,0,0,0,137,109.3a3.62,3.62,0,0,0,3.41-3.12c0-1.14-.53-1.51-2.54-1.51S134.21,105.6,134.21,106.74Z" fill="#e2eff9"/></g><path d="M146.08,108.52c.21,4.88-7.18,10.77-16.11,11.51-7.69.63-17.48-3.71-17.48-11.51,0-3.59,9.77-.77,17.48-.77S145.92,104.93,146.08,108.52Z" fill="none" stroke="#f9ba00" stroke-miterlimit="10" stroke-width="1.05"/><circle cx="118.97" cy="93.98" r="6" fill="#2a2300"/><ellipse cx="118.97" cy="92.48" rx="2" ry="2.5" fill="#e9e9e9" opacity="0.86"/><circle cx="139.97" cy="93.98" r="6" fill="#2a2300"/><ellipse cx="139.97" cy="92.48" rx="2" ry="2.5" fill="#e9e9e9" opacity="0.86"/><circle cx="107.98" cy="107.98" r="4" fill="#ff110a"/><circle cx="149.97" cy="107.98" r="4" fill="#ff110a"/><path d="M117.87,186.35s8.35,1.4,10.35-.24c2.34-1.92,2.67-11.81,2.67-11.81s-1.17,9.61,1,11.57,11.58,1,11.58,1l.82-20.4-27.44-1Z"/><path d="M148.73,152.42c0,16.24-8.95,18-18.81,18s-16.88-1.78-16.88-18-6.75-20.39,2.42-28c2.16-1.8,26.87-2.2,29.41-.47C152.59,129.18,148.73,140.85,148.73,152.42Z"/><path d="M120.28,130.41l-10.13-5.3-3.38,7.71L93,152.62a3,3,0,0,0,.65,4.15l5.42,4.12a3,3,0,0,0,4.24-.56l7.81-10.15-9.35,27.63a6.31,6.31,0,0,0,1.51,6.5l1.82,1.81a5.35,5.35,0,0,0,7.38.18l17.44-15.86,13.3,10.34a13.78,13.78,0,0,0,9.21,2.89l8.18.3c2.23-.12,7.12,3.24,5-1l-16.85-32.79,9.24,10a2.54,2.54,0,0,0,3.72,0l3.75-4a2.53,2.53,0,0,0,.46-2.75l-13.79-31.27L129,137.65Z" fill="#c91600" stroke="#000" stroke-miterlimit="10" stroke-width="0.04"/><path d="M129,137.65s11.93,22.27,8.63,16.77C133.2,147.11,125.75,138.09,129,137.65Z" stroke="#c91600" stroke-miterlimit="10" stroke-width="0.2"/><path d="M129.92,170.44c.09,1.81,8.55-17.45,7.72-15.92C136.67,156.31,129.92,170.44,129.92,170.44Z" stroke="#c91600" stroke-miterlimit="10" stroke-width="0.16"/><polygon points="111.24 77.15 114.22 57.91 148.89 59.31 156.17 75.06 137.67 80.28 111.24 77.15" fill="#c91600" stroke="#000" stroke-miterlimit="10" stroke-width="0.04"/><path d="M103.1,71.73c-11.61-1.24-46.53.76-46.53.76s51.43,20,73.76,19.91c21.86-.1,81.49-19.68,81.49-19.68S134.4,75.07,103.1,71.73Z" fill="#c91600" stroke="#000" stroke-miterlimit="10" stroke-width="0.04"/><polygon points="112.26 70.55 130.67 73.25 153.11 68.43 156.14 75.1 130.67 79.33 111.16 76.88 112.26 70.55" fill="#11006a" stroke="#000" stroke-miterlimit="10" stroke-width="0.04"/><g opacity="0.22"><path d="M130.67,73.25c-9-.28-21.3-.85-27.57-1.52-11.61-1.24-46.53.76-46.53.76s52.15,21,73.76,19.91Z" stroke="#000" stroke-miterlimit="10" stroke-width="0.04"/></g><polygon points="131.11 58.59 114.12 58.04 111.14 77.28 130.67 79.33 131.11 58.59" opacity="0.22"/><rect x="58.99" y="193.96" width="148.97" height="37.99" rx="10.85" stroke="#314fae" stroke-miterlimit="10" stroke-width="1.69" fill="url(#d)"/><path d="M79.6,224,74,205.77V224H70V202h8l3.86,13.17L85.93,202h8v22H89V205.77L83.25,224Z" fill="#314fae"/><path d="M106.64,224.6a8.12,8.12,0,0,1-7-3.38A13.51,13.51,0,0,1,97.2,213a13,13,0,0,1,2.5-8.15,8.42,8.42,0,0,1,7.12-3.27,8,8,0,0,1,7,3.49,13.88,13.88,0,0,1,2.37,8,13.48,13.48,0,0,1-2.44,8.19A8.34,8.34,0,0,1,106.64,224.6Zm.14-18.72c-2.74,0-4.11,2.4-4.11,7.22s1.37,7.23,4.11,7.23,4-2.4,4-7.22S109.44,205.88,106.78,205.88Z" fill="#314fae"/><path d="M135.63,202,129,224h-5.54l-6.6-22h5.48l4.4,15.73L131.31,202Z" fill="#314fae"/><path d="M153.17,206.86l-4.44,1.48a3.65,3.65,0,0,0-3.8-2.64c-2.06,0-3.1.67-3.1,2a1.82,1.82,0,0,0,.58,1.35,5.92,5.92,0,0,0,2.62,1,25.84,25.84,0,0,1,5,1.39,6.35,6.35,0,0,1,2.67,2.26,6,6,0,0,1,1.09,3.49,7,7,0,0,1-2.33,5.22q-2.32,2.21-6.9,2.21a10.48,10.48,0,0,1-5.83-1.56,7.45,7.45,0,0,1-3.18-4.63l4.84-1.1q.81,3.12,4.53,3.12a4.32,4.32,0,0,0,2.68-.69,2.09,2.09,0,0,0,.88-1.66,1.74,1.74,0,0,0-.8-1.52,9.54,9.54,0,0,0-3.09-1,14.24,14.24,0,0,1-6.07-2.41,5.55,5.55,0,0,1-1.81-4.47,6.63,6.63,0,0,1,2.17-5,8.18,8.18,0,0,1,5.86-2Q151.3,201.61,153.17,206.86Z" fill="#314fae"/><path d="M174,202v22h-5v-9h-7v9h-5V202h5v9h7v-9Z" fill="#314fae"/><path d="M187.26,224.6a8.13,8.13,0,0,1-7-3.38,13.51,13.51,0,0,1-2.47-8.19,13.05,13.05,0,0,1,2.5-8.15,8.44,8.44,0,0,1,7.12-3.27,8,8,0,0,1,7,3.49,13.89,13.89,0,0,1,2.38,8,13.48,13.48,0,0,1-2.45,8.19A8.34,8.34,0,0,1,187.26,224.6Zm.15-18.72c-2.74,0-4.11,2.4-4.11,7.22s1.37,7.23,4.11,7.23,4-2.4,4-7.22S190.06,205.88,187.41,205.88Z" fill="#314fae"/></svg>