<svg xmlns="http://www.w3.org/2000/svg" xmlns:xlink="http://www.w3.org/1999/xlink" viewBox="0 0 431.67 500">
    <defs>
        <clipPath id="a">
            <path fill="#321f00" stroke="#f9ba00" stroke-miterlimit="10" stroke-width="4.65" d="M290.42,171.74c.95,21.68-31.84,47.81-71.49,51.06-34.13,2.8-77.55-16.45-77.55-51.06,0-15.94,43.36-3.43,77.55-3.43S289.73,155.83,290.42,171.74Z"/>
        </clipPath>
    </defs>
    <title>
        intro
    </title>
    <path fill="#f9ba00" d="M186.58,91.49l-1-11.78a8.47,8.47,0,0,0-4.17-6.95L137,49.91l2.42-5.6,46.27,24.18a8.56,8.56,0,0,1,4.18,6.85l1.52,15.15Z"/>
    <polygon fill="#f9ba00" points="218.96 93.82 213.94 93.82 214.57 62 213.94 29.05 218.96 29.05 218.33 62 218.96 93.82"/>
    <path fill="#f9ba00" d="M244.73,92,246,78.6a8.45,8.45,0,0,1,4.16-6.81l44.46-22.88-2.42-5.61L245.86,67.53a8.52,8.52,0,0,0-4.15,6.66l-2,16.3Z"/>
    <path fill="#314fae" d="M224.7,30.63H208.18a1.46,1.46,0,0,1-1.47-1.17L203,6.92a1.41,1.41,0,0,1,1.47-1.57h24a1.41,1.41,0,0,1,1.47,1.57l-3.76,22.54A1.46,1.46,0,0,1,224.7,30.63Z"/>
    <path fill="#314fae" d="M295.86,51.71l-5.34-11.86a1.17,1.17,0,0,1,.44-1.46l16.38-10.6a1.17,1.17,0,0,1,1.7.5l7.76,17.24a1.18,1.18,0,0,1-.76,1.61l-18.8,5.21A1.16,1.16,0,0,1,295.86,51.71Z"/>
    <path fill="#314fae" d="M135.94,52.82,141.27,41a1.16,1.16,0,0,0-.43-1.46L124.46,28.9a1.17,1.17,0,0,0-1.71.51L115,46.65a1.16,1.16,0,0,0,.75,1.6l18.81,5.22A1.17,1.17,0,0,0,135.94,52.82Z"/>
    <path fill="#f9ba00" d="M347.19,125.53c-13-4.43-27.74,6.29-37.63,1.92-26.23-11.54-51.2-50-93.72-50s-67.49,38.51-93.72,50.05c-9.9,4.37-24.6-6.35-37.64-1.92-24.55,8.34-87.91,10.86-73,17.34,49.85,21.66,45.29,49.66,53.33,47.66,23.18-5.78,25.5-28.89,42.88-13,2.68,2.44,5.74-1,8.9-6.66,5.64,25,26.12,49.37,54,62.7-19.67,23.61-50,54.46-64.94,99-3,9-7.81,32.63,2.48,31.27,8-1.06,30.83-27.1,53.4-56-1.52,7.1-2.83,14.49-4,22.06-5.16,34,6,53.07,23.12,62.88-.31,13.46-.89,38.67-1.13,49-.16,6.59-9.73,15.69-26.05,17-11.48.91-43.27-3.8-45.24,11.24-1.5,11.45,23.3,17.48,32,18.33,14.21,1.38,55.25-19.46,55.25-19.46,10.88-3.84,17.27-8.89,17.76-14.05l5.13-53.17,1.16,0c.64,0,1.27,0,1.91,0l4.93,48.82c.49,4.87,6.87,9.63,17.75,13.24,0,0,41,19.62,55.22,18.3,8.72-.81,33.53-6.55,32-17.35-1.95-14.19-33.75-9.71-45.22-10.55-16.32-1.2-25.89-9.78-26-16-.23-9.93-.8-34.3-1.09-46.85,15.48-10.36,25.35-29.41,22.5-61.39a218.09,218.09,0,0,0-3.18-22.76c22.74,29.2,45.87,55.66,53.94,56.72,10.29,1.36,5.52-22.24,2.49-31.27-15.6-46.48-48.07-78-67.6-102.18C292,216.63,309.9,194,315.12,170.87c3.14,5.64,6.2,9.1,8.88,6.66,17.39-15.89,19.71,7.22,42.89,13,8.05,2,3.48-26,53.32-47.66C435.1,136.39,371.74,133.87,347.19,125.53Z"/>
    <path fill="#314fae" d="M103.12,167.12c-10.8-9.87-12.24,4.48-26.64,8.07-5,1.24-2.16-16.15-33.12-29.61-9.25-4,30.11-5.58,45.36-10.76,15.84-5.39,35.58,4.83,29.52,9.86C113.92,148.27,107.64,171.25,103.12,167.12Z"/>
    <path fill="#314fae" d="M329.71,167.12c10.8-9.87,12.24,4.48,26.64,8.07,5,1.24,2.16-16.15,33.12-29.61,9.25-4-30.11-5.58-45.36-10.76-15.84-5.39-35.58,4.83-29.52,9.86C318.91,148.27,325.19,171.25,329.71,167.12Z"/>
    <path fill="#321f00" d="M290.42,171.74c.95,21.68-31.84,47.81-71.49,51.06-34.13,2.8-77.55-16.45-77.55-51.06,0-15.94,43.36-3.43,77.55-3.43S289.73,155.83,290.42,171.74Z"/>
    <g clip-path="url(#a)">
        <ellipse cx="211.49" cy="211.51" fill="#742900" rx="45.02" ry="24.49"/>
        <path fill="#e2eff9" d="M187.62,162.53c0,5.06-3.37,11.38-12.29,11.38s-15.12-8.79-15.12-13.85,2.34-6.68,11.26-6.68S187.62,157.48,187.62,162.53Z"/>
        <path fill="#e2eff9" d="M211,165.84c0,5-3.24,14.58-12.16,14.58s-15.25-12-15.25-17,2.34-6.69,11.26-6.69S211,160.78,211,165.84Z"/>
        <path fill="#e2eff9" d="M266.91,222.25c0-5.06-12.78-11-21.7-11s-5.71,8.44-5.71,13.49,2.34,6.69,11.26,6.69S266.91,227.3,266.91,222.25Z"/>
        <path fill="#e2eff9" d="M211.5,227.87c0-5.05,3-17.9-5.92-17.9s-17.08,10.25-17.08,15.31,2.34,6.68,11.26,6.68S211.5,232.93,211.5,227.87Z"/>
        <path fill="#e2eff9" d="M215.22,227.87c0-5.05-3-17.9,5.93-17.9s17.08,10.25,17.08,15.31S235.89,232,227,232,215.22,232.93,215.22,227.87Z"/>
        <path fill="#e2eff9" d="M212,165.8c0,5.06,3.24,14.59,12.16,14.59s15.26-12,15.26-17.06-2.35-6.68-11.27-6.68S212,160.75,212,165.8Z"/>
        <path fill="#e2eff9" d="M159.27,222.76c0-5.06,12.78-11,21.7-11s5.71,8.44,5.71,13.5-2.34,6.68-11.26,6.68S159.27,227.81,159.27,222.76Z"/>
        <path fill="#e2eff9" d="M237.75,163.83c0,5,3.38,11.37,12.3,11.37s15.12-8.79,15.12-13.84-2.34-6.69-11.27-6.69S237.75,158.77,237.75,163.83Z"/>
    </g>
    <path fill="none" stroke="#f9ba00" stroke-miterlimit="10" stroke-width="4.65" d="M290.42,171.74c.95,21.68-31.84,47.81-71.49,51.06-34.13,2.8-77.55-16.45-77.55-51.06,0-15.94,43.36-3.43,77.55-3.43S289.73,155.83,290.42,171.74Z"/>
    <ellipse cx="180.69" cy="124.62" fill="#2a2300" rx="20.54" ry="21.33"/>
    <ellipse cx="250.2" cy="124.62" fill="#2a2300" rx="20.54" ry="21.33"/>
    <ellipse cx="181.48" cy="119.09" fill="#e9e9e9" opacity="0.86" rx="7.11" ry="7.9"/>
    <ellipse cx="254.15" cy="119.09" fill="#e9e9e9" opacity="0.86" rx="7.11" ry="7.9"/>
    <path fill="#314fae" d="M270.92,327.34c0-34.44-22.37-81.38-50.75-81.38s-52,46.94-52,81.38,23,62.36,51.39,62.36S270.92,361.78,270.92,327.34Z"/>
    <g opacity="0.72">
        <circle cx="131.71" cy="161.75" r="11.06" fill="#ff110a"/>
        <circle cx="300.75" cy="161.75" r="11.06" fill="#ff110a"/>
    </g>
    <rect width="284.84" height="153.1" x="69.63" y="341.55" fill="#001638" rx="6.16"/>
    <path fill="#001638" d="M338.6,245,74.18,357.66a4,4,0,0,1-5.52-2.87l-7.88-37.22A4,4,0,0,1,63.15,313L327.56,200.38a4,4,0,0,1,5.53,2.87L341,240.47A4,4,0,0,1,338.6,245Z"/>
    <polygon fill="#314fae" points="122.44 337.1 88.81 351.43 79.23 306.17 112.87 291.84 122.44 337.1"/>
    <polygon fill="#314fae" points="191.45 307.7 157.82 322.03 148.24 276.77 181.88 262.44 191.45 307.7"/>
    <polygon fill="#314fae" points="259.88 278.55 226.25 292.88 216.67 247.62 250.31 233.29 259.88 278.55"/>
    <polygon fill="#314fae" points="329.97 248.75 296.34 263.08 286.76 217.82 320.4 203.5 329.97 248.75"/>
    <path fill="#f9ba00" d="M127.53,436a4.25,4.25,0,0,1-1.46,3.36,5.31,5.31,0,0,1-3.6,1.28c-2.47,0-3.76-.91-3.85-2.74q-.56-11.57-1.81-21.36a41.09,41.09,0,0,1-4,8.22,48.45,48.45,0,0,0-3.94,8.13c-.84,2-1.78,3-2.83,3a1.78,1.78,0,0,1-.7-.14q-5.11-1.68-8.59-10.59l-2.55-6.41c-.1,2.3-.21,5-.33,8q-.24,5.29-.46,6.54c-.62,3-1.86,4.46-3.72,4.46a4.62,4.62,0,0,1-2.83-1,3,3,0,0,1-1.49-2.46,80.44,80.44,0,0,1,1.12-9c.87-5.35,1.33-8.64,1.39-9.84l.6-10.26a2.45,2.45,0,0,1,1.09-1.93,4,4,0,0,1,2.26-.67c2,0,2.89.77,2.83,2.32a100,100,0,0,1,3,9.61,27.72,27.72,0,0,0,2,5.2q1.81,3.68,3.49,3.67,2.69,0,7-10.12.56-1.31,5.24-13a3.16,3.16,0,0,1,1.19-2.5,3.82,3.82,0,0,1,2.62-1.12c1.08,0,1.83.68,2.23,2,.16.5.51,2.17,1.07,5q1.16,5.47,2.18,13.14,1.53,10.95,1.9,13.14l.56,3A17.78,17.78,0,0,1,127.53,436Z"/>
    <path fill="#f9ba00" d="M195.09,438a6.48,6.48,0,0,1-2.18-.23,2.74,2.74,0,0,1-1.4-1.58c-.74-1.61-1.72-4-2.92-7.29l-2.79-7.47a93.94,93.94,0,0,0-4.55-10.12c-.56-1-1.1-2-1.62-3a7.49,7.49,0,0,1-1.07-3,4.68,4.68,0,0,1,1-2.81,2.92,2.92,0,0,1,2.37-1.36,2.29,2.29,0,0,1,1.85,1.16,43.51,43.51,0,0,1,3.12,5.57l2.78,5.89,5.11,10.64a126.08,126.08,0,0,1,7-11.42,92.32,92.32,0,0,0,6.82-11.57q.42-1,1.77-3.9a3.25,3.25,0,0,1,3.11-2.13,3.29,3.29,0,0,1,2.16.79,2.43,2.43,0,0,1,.95,1.95,5.21,5.21,0,0,1-.23,1.39,85.51,85.51,0,0,1-8.64,19.31A103.62,103.62,0,0,0,202,429.5c-.41,1-1.2,2.84-2.37,5.62A4.56,4.56,0,0,1,195.09,438Z"/>
    <path fill="#f9ba00" d="M233.58,438c-1.09,0-2,0-2.6-.09a24.7,24.7,0,0,1-6.78-1.77c-3.13-1.27-4.69-2.64-4.69-4.13a3.72,3.72,0,0,1,1.18-2.65,3.63,3.63,0,0,1,2.63-1.2,6.3,6.3,0,0,1,2.13.46A34.37,34.37,0,0,0,236.69,431a23.71,23.71,0,0,0,7.24-1.17q5-1.58,5-4.31,0-3-5.57-5.3a35.83,35.83,0,0,0-7.89-2.23q-.15,0-10.59-1.11a2.47,2.47,0,0,1-2.51-2.69q0-3.25,3-7.48a28.89,28.89,0,0,1,5.66-5.94c2.63-2,4.76-3,6.37-3a22.68,22.68,0,0,1,4.36.56c2.32.53,3.76.83,4.32.93a5.81,5.81,0,0,1,4.5,4.83,2.53,2.53,0,0,1-.76,1.78,2.32,2.32,0,0,1-1.75.82,3.54,3.54,0,0,1-2.41-1.3,10.84,10.84,0,0,0-4.32-.84l-2.36-.19c-1-.09-1.79-.14-2.37-.14q-1.86,0-4.07,2.21c-1.47,1.47-2.2,2.83-2.2,4.06,0,1,.89,1.47,2.69,1.54a51.29,51.29,0,0,1,13.74,1.81q9.39,3,9.38,8.87a10.16,10.16,0,0,1-2.41,6.26,22,22,0,0,1-9,6.83A28.59,28.59,0,0,1,233.58,438Z"/>
    <path fill="#f9ba00" d="M288.09,439.11a4.58,4.58,0,0,1-2.6-.83,2.66,2.66,0,0,1-1.39-2.23q0-1.4.46-8.82c-.65,0-1.63,0-2.93-.05s-2.29,0-3,0a30.22,30.22,0,0,0-10,1.43l.05,2.33c.06,3.46-1.13,5.2-3.58,5.2a4.82,4.82,0,0,1-2.74-.79,2.56,2.56,0,0,1-1.34-2.42l0-.18.56-14.58q.09-2.33-.28-11.05c0-.44-.09-1.33-.18-2.7-.07-.77-.1-1.64-.1-2.59a2.94,2.94,0,0,1,1.12-2.37,3.86,3.86,0,0,1,2.55-.93c1.36,0,2.24,1,2.65,3.11.06.34.15,1.9.27,4.69q.19,3.85.28,5.8l.61,10.77c3-.77,8.38-1.4,16.45-1.9v-2.51c-.39-1-.57-5.58,0-13.69v-.24c-1-.86-.6-1.58.17-2.15a4.13,4.13,0,0,1,2.55-.86,2.16,2.16,0,0,1,2.42,2c.31,2,.55,4.8.74,8.36l.42,8.49q.51,10.41.51,12.07a15,15,0,0,1-.42,4.32A3.2,3.2,0,0,1,288.09,439.11Z"/>
    <ellipse cx="319.75" cy="418.1" fill="#314fae" rx="18.69" ry="19.58"/>
    <circle cx="322.42" cy="412.76" r="7.12" fill="#e9e9e9" opacity="0.86"/>
    <ellipse cx="154.19" cy="418.1" fill="#314fae" rx="18.69" ry="19.58"/>
    <circle cx="158.64" cy="412.76" r="7.12" fill="#e9e9e9" opacity="0.86"/>
</svg>
