<svg xmlns="http://www.w3.org/2000/svg" xmlns:xlink="http://www.w3.org/1999/xlink" width="413.23" height="483.3" viewBox="0 0 413.23 483.3"><defs><clipPath id="a"><path d="M265.45,171c.75,17.11-25.14,37.74-56.45,40.31-26.95,2.21-61.23-13-61.23-40.31,0-12.59,34.24-2.71,61.23-2.71S264.9,158.45,265.45,171Z" fill="#321f00" stroke="#f9ba00" stroke-miterlimit="10" stroke-width="3.68"/></clipPath></defs><title>movieMovsho</title><path d="M177.36,86.14l-1-11.78a8.48,8.48,0,0,0-4.17-7L127.81,44.56l2.41-5.6L176.5,63.14A8.59,8.59,0,0,1,180.67,70l1.53,15.15Z" fill="#f9ba00"/><polygon points="209.74 88.47 204.73 88.47 205.35 56.65 204.73 23.7 209.74 23.7 209.11 56.65 209.74 88.47" fill="#f9ba00"/><path d="M235.51,86.64l1.3-13.39A8.47,8.47,0,0,1,241,66.44l44.46-22.88L283,38,236.65,62.18a8.55,8.55,0,0,0-4.16,6.66l-2,16.3Z" fill="#f9ba00"/><path d="M215.48,25.28H199a1.46,1.46,0,0,1-1.47-1.16L193.75,1.57A1.42,1.42,0,0,1,195.23,0h24a1.41,1.41,0,0,1,1.47,1.58L217,24.12A1.46,1.46,0,0,1,215.48,25.28Z" fill="#314fae"/><path d="M286.64,46.36,281.31,34.5a1.16,1.16,0,0,1,.43-1.46l16.39-10.6a1.17,1.17,0,0,1,1.7.5l7.75,17.24a1.17,1.17,0,0,1-.75,1.61L288,47A1.18,1.18,0,0,1,286.64,46.36Z" fill="#314fae"/><path d="M126.72,47.47l5.34-11.86a1.18,1.18,0,0,0-.43-1.46l-16.39-10.6a1.16,1.16,0,0,0-1.7.51L105.78,41.3a1.18,1.18,0,0,0,.76,1.61l18.8,5.21A1.17,1.17,0,0,0,126.72,47.47Z" fill="#314fae"/><path d="M338,120.18c-13-4.43-27.74,6.29-37.63,1.92-26.23-11.54-51.2-50-93.72-50s-67.48,38.51-93.72,50.05c-9.9,4.37-24.59-6.35-37.64-1.92-24.55,8.34-87.91,10.87-73,17.34,49.84,21.66,45.29,49.66,53.32,47.66,23.18-5.77,25.5-28.89,42.89-13,2.68,2.44,5.74-1,8.89-6.66,5.64,25,26.12,49.37,54,62.7-19.67,23.61-50,54.46-64.94,99-3,9-7.8,32.63,2.49,31.27,8-1,30.83-27.1,53.39-56-1.52,7.1-2.83,14.49-4,22.06-5.16,34,6,53.07,23.12,62.88-.31,13.46-.89,38.67-1.13,49-.15,6.59-9.73,15.69-26.05,17-11.47.91-43.27-3.8-45.24,11.24-1.5,11.45,23.31,17.48,32,18.33,14.22,1.38,55.25-19.46,55.25-19.46,10.88-3.84,17.27-8.89,17.77-14.05l5.12-53.17,1.16,0,1.92,0,4.92,48.82c.49,4.87,6.88,9.63,17.75,13.24,0,0,41,19.62,55.22,18.3,8.72-.81,33.53-6.54,32.05-17.35-1.95-14.19-33.76-9.71-45.23-10.55-16.32-1.2-25.88-9.78-26-16-.23-9.93-.8-34.3-1.09-46.85,15.48-10.36,25.35-29.41,22.51-61.39a223.57,223.57,0,0,0-3.18-22.76c22.73,29.2,45.86,55.66,53.94,56.73,10.28,1.35,5.51-22.25,2.48-31.28-15.6-46.48-48.07-78-67.6-102.18,24.76-13.8,42.71-36.42,47.94-59.56,3.14,5.64,6.2,9.1,8.88,6.66,17.38-15.89,19.7,7.23,42.89,13,8,2,3.47-26,53.32-47.66C425.88,131.05,362.52,128.52,338,120.18Z" fill="#f9ba00"/><path d="M93.9,161.77c-10.8-9.87-12.24,4.48-26.64,8.07-5,1.25-2.16-16.15-33.12-29.61-9.25-4,30.11-5.58,45.36-10.76,15.84-5.39,35.59,4.83,29.52,9.87C104.7,142.92,98.42,165.9,93.9,161.77Z" fill="#314fae"/><path d="M320.5,161.77c10.8-9.87,12.24,4.48,26.64,8.07,5,1.25,2.16-16.15,33.12-29.61,9.24-4-30.11-5.58-45.36-10.76-15.84-5.39-35.59,4.83-29.52,9.87C309.7,142.92,316,165.9,320.5,161.77Z" fill="#314fae"/><path d="M261.7,322c0-34.44-22.36-81.38-50.75-81.38s-52,46.94-52,81.38,23,62.36,51.39,62.36S261.7,356.43,261.7,322Z" fill="#314fae"/><path d="M265.45,171c.75,17.11-25.14,37.74-56.45,40.31-26.95,2.21-61.23-13-61.23-40.31,0-12.59,34.24-2.71,61.23-2.71S264.9,158.45,265.45,171Z" fill="#321f00"/><g clip-path="url(#a)"><ellipse cx="203.13" cy="202.42" rx="35.55" ry="19.33" fill="#742900"/><path d="M184.28,163.75c0,4-2.66,9-9.71,9s-11.93-6.94-11.93-10.93,1.85-5.28,8.89-5.28S184.28,159.75,184.28,163.75Z" fill="#e2eff9"/><path d="M202.74,166.35c0,4-2.56,11.52-9.6,11.52s-12-9.47-12-13.46,1.85-5.28,8.89-5.28S202.74,162.36,202.74,166.35Z" fill="#e2eff9"/><path d="M246.89,210.89c0-4-10.09-8.7-17.14-8.7s-4.51,6.66-4.51,10.65,1.85,5.28,8.9,5.28S246.89,214.89,246.89,210.89Z" fill="#e2eff9"/><path d="M203.14,215.34c0-4,2.36-14.14-4.68-14.14S185,209.29,185,213.29s1.85,5.28,8.9,5.28S203.14,219.33,203.14,215.34Z" fill="#e2eff9"/><path d="M206.08,215.34c0-4-2.37-14.14,4.68-14.14s13.48,8.09,13.48,12.09-1.85,5.28-8.89,5.28S206.08,219.33,206.08,215.34Z" fill="#e2eff9"/><path d="M203.54,166.33c0,4,2.56,11.52,9.6,11.52s12.05-9.48,12.05-13.47-1.85-5.28-8.9-5.28S203.54,162.34,203.54,166.33Z" fill="#e2eff9"/><path d="M161.9,211.3c0-4,10.09-8.71,17.13-8.71s4.51,6.66,4.51,10.66-1.85,5.28-8.89,5.28S161.9,215.29,161.9,211.3Z" fill="#e2eff9"/><path d="M223.86,164.77c0,4,2.67,9,9.71,9s11.94-6.94,11.94-10.93-1.85-5.28-8.89-5.28S223.86,160.77,223.86,164.77Z" fill="#e2eff9"/></g><path d="M265.45,171c.75,17.11-25.14,37.74-56.45,40.31-26.95,2.21-61.23-13-61.23-40.31,0-12.59,34.24-2.71,61.23-2.71S264.9,158.45,265.45,171Z" fill="none" stroke="#f9ba00" stroke-miterlimit="10" stroke-width="3.68"/><ellipse cx="169.68" cy="119.27" rx="20.54" ry="21.33" fill="#2a2300"/><ellipse cx="170.47" cy="113.74" rx="7.11" ry="7.9" fill="#e9e9e9" opacity="0.86"/><ellipse cx="243.56" cy="119.27" rx="20.54" ry="21.33" fill="#2a2300"/><ellipse cx="244.35" cy="113.74" rx="7.11" ry="7.9" fill="#e9e9e9" opacity="0.86"/><ellipse cx="132.88" cy="171.87" rx="13.58" ry="13.28" fill="#ff110a"/><ellipse cx="280.36" cy="171.15" rx="13.58" ry="13.28" fill="#ff110a"/><rect x="60.41" y="330.2" width="284.84" height="153.1" rx="6.16" fill="#001638"/><path d="M329.38,233.67,65,346.31a4,4,0,0,1-5.53-2.87l-7.87-37.22a4,4,0,0,1,2.36-4.55L318.35,189a4,4,0,0,1,5.52,2.87l7.88,37.22A4,4,0,0,1,329.38,233.67Z" fill="#001638"/><polygon points="113.23 325.75 79.59 340.08 70.02 294.82 103.65 280.49 113.23 325.75" fill="#314fae"/><polygon points="182.24 296.35 148.6 310.68 139.03 265.42 172.66 251.09 182.24 296.35" fill="#314fae"/><polygon points="250.67 267.2 217.03 281.53 207.46 236.27 241.09 221.94 250.67 267.2" fill="#314fae"/><polygon points="320.76 237.41 287.12 251.74 277.55 206.47 311.18 192.15 320.76 237.41" fill="#314fae"/><path d="M119.27,425a4.35,4.35,0,0,1-1.5,3.45,5.38,5.38,0,0,1-3.68,1.3q-3.8,0-3.94-2.8-.57-11.82-1.85-21.84a42.05,42.05,0,0,1-4.08,8.4,49.75,49.75,0,0,0-4,8.31c-.85,2-1.82,3-2.89,3a1.89,1.89,0,0,1-.72-.14Q91.35,423,87.79,413.9l-2.61-6.55q-.15,3.51-.33,8.22c-.16,3.6-.32,5.84-.48,6.69q-.95,4.56-3.8,4.56a4.7,4.7,0,0,1-2.89-1.05,3,3,0,0,1-1.52-2.51,80.71,80.71,0,0,1,1.14-9.21c.88-5.48,1.36-8.84,1.42-10.07l.62-10.49a2.45,2.45,0,0,1,1.11-2,4.05,4.05,0,0,1,2.31-.69c2,0,3,.79,2.89,2.37A100.85,100.85,0,0,1,88.74,403a27.41,27.41,0,0,0,2,5.32c1.24,2.5,2.42,3.75,3.56,3.75q2.76,0,7.17-10.35.57-1.33,5.37-13.25a3.2,3.2,0,0,1,1.21-2.56,3.94,3.94,0,0,1,2.68-1.14c1.11,0,1.87.7,2.28,2.09q.24.75,1.09,5.13,1.19,5.6,2.23,13.43c1,7.47,1.69,11.95,1.95,13.44l.57,3A18.82,18.82,0,0,1,119.27,425Z" fill="#f9ba00"/><path d="M188.35,427.05a6.8,6.8,0,0,1-2.23-.23,2.78,2.78,0,0,1-1.43-1.62c-.76-1.64-1.75-4.13-3-7.45l-2.85-7.64a96.2,96.2,0,0,0-4.65-10.35c-.57-1-1.12-2-1.66-3a7.76,7.76,0,0,1-1.09-3,4.72,4.72,0,0,1,1-2.87,3,3,0,0,1,2.42-1.4,2.37,2.37,0,0,1,1.9,1.18,43.72,43.72,0,0,1,3.18,5.7l2.85,6,5.22,10.87a134.16,134.16,0,0,1,7.17-11.68,94.67,94.67,0,0,0,7-11.82c.29-.7.89-2,1.81-4a3.31,3.31,0,0,1,3.18-2.18,3.37,3.37,0,0,1,2.2.8,2.51,2.51,0,0,1,1,2,5,5,0,0,1-.24,1.42,86.89,86.89,0,0,1-8.83,19.75,106.23,106.23,0,0,0-5.89,10.93L193,424.16A4.65,4.65,0,0,1,188.35,427.05Z" fill="#f9ba00"/><path d="M227.71,427.1c-1.11,0-2,0-2.66-.09a24.74,24.74,0,0,1-6.93-1.81q-4.8-1.93-4.8-4.22a3.85,3.85,0,0,1,1.21-2.71,3.7,3.7,0,0,1,2.69-1.23,6.6,6.6,0,0,1,2.18.47A35,35,0,0,0,230.89,420a24.2,24.2,0,0,0,7.41-1.19c3.38-1.07,5.08-2.54,5.08-4.41q0-3-5.7-5.41a35.55,35.55,0,0,0-8.07-2.28q-.15,0-10.83-1.14a2.52,2.52,0,0,1-2.56-2.76q0-3.32,3.09-7.64a29.72,29.72,0,0,1,5.79-6.08q4-3.07,6.5-3.08a23,23,0,0,1,4.46.57c2.38.54,3.85.85,4.42.95a5.12,5.12,0,0,1,3.61,2.42,5.21,5.21,0,0,1,1,2.51,2.62,2.62,0,0,1-.79,1.83,2.36,2.36,0,0,1-1.78.83,3.58,3.58,0,0,1-2.47-1.33,11.24,11.24,0,0,0-4.41-.85l-2.42-.19c-1-.1-1.82-.14-2.43-.14-1.26,0-2.65.75-4.15,2.25s-2.26,2.89-2.26,4.16q0,1.47,2.76,1.56,9,.24,14.05,1.86,9.6,3.07,9.59,9.06a10.38,10.38,0,0,1-2.47,6.41,22.39,22.39,0,0,1-9.21,7A29.07,29.07,0,0,1,227.71,427.1Z" fill="#f9ba00"/><path d="M283.45,428.24a4.71,4.71,0,0,1-2.66-.85,2.71,2.71,0,0,1-1.42-2.28c0-.95.15-4,.47-9-.66,0-1.66,0-3,0s-2.34-.05-3-.05a31,31,0,0,0-10.21,1.47l0,2.38c.06,3.54-1.15,5.32-3.65,5.32a4.86,4.86,0,0,1-2.81-.81,2.61,2.61,0,0,1-1.37-2.47l0-.19.57-14.91c.07-1.58,0-5.35-.28-11.3,0-.44-.1-1.36-.19-2.75-.06-.79-.1-1.68-.1-2.66a3,3,0,0,1,1.14-2.42,4,4,0,0,1,2.61-.95c1.4,0,2.3,1.06,2.71,3.18.06.35.16,1.95.29,4.8.12,2.62.22,4.6.28,5.93l.62,11c3.1-.79,8.58-1.43,16.82-1.94v-2.56c-.39-1.05-.58-5.72,0-14v-.24c-1-.89-.62-1.62.18-2.21a4.32,4.32,0,0,1,2.61-.88,2.21,2.21,0,0,1,2.47,2.09c.31,2.06.57,4.91.75,8.55l.43,8.69q.53,10.63.52,12.34a15.69,15.69,0,0,1-.42,4.42A3.28,3.28,0,0,1,283.45,428.24Z" fill="#f9ba00"/><ellipse cx="145.67" cy="406.64" rx="20.54" ry="21.33" fill="#314fae"/><ellipse cx="146.46" cy="401.11" rx="7.11" ry="7.9" fill="#e9e9e9" opacity="0.86"/><ellipse cx="314.8" cy="406.64" rx="20.54" ry="21.33" fill="#314fae"/><ellipse cx="315.59" cy="401.11" rx="7.11" ry="7.9" fill="#e9e9e9" opacity="0.86"/></svg>