<svg xmlns="http://www.w3.org/2000/svg" width="15.18" height="17.82" viewBox="0 0 15.18 17.82"><title>movsho</title><path d="M12.42,4.49c-.48-.16-1,.23-1.39.07-.71-.32-1.4-1.18-2.35-1.6l0-.2a.33.33,0,0,1,.15-.25l1.63-.84,0,.11a0,0,0,0,0,.05,0l.69-.19a0,0,0,0,0,0-.06L11,.92s0,0-.06,0l-.6.39s0,0,0,.05l.06.13-1.7.89a.29.29,0,0,0-.15.24l0,.29a2.66,2.66,0,0,0-.82-.17V2.15L7.7,1h.22A0,0,0,0,0,8,1L8.11.13s0-.06-.06-.13H7.17c0,.07-.06.1,0,.13L7.26,1s0,0,0,0h.21l0,1.17v.57a2.75,2.75,0,0,0-.87.17l0-.25a.31.31,0,0,0-.16-.25L4.79,1.51l.06-.13a0,0,0,0,0,0,0L4.23.94s-.05,0-.06,0l-.28.63a0,0,0,0,0,0,.06l.69.19a0,0,0,0,0,.06,0l0-.11,1.63.84a.31.31,0,0,1,.15.25V3c-.94.43-1.63,1.28-2.34,1.6-.37.16-.91-.23-1.39-.07-.9.3-3.22.4-2.68.63C1.91,5.92,1.75,7,2,6.88c.85-.22.94-1.07,1.58-.48.09.09.21,0,.32-.25a3.6,3.6,0,0,0,2,2.31A10.94,10.94,0,0,0,3.54,12.1c-.11.33-.29,1.19.09,1.14s1.13-1,2-2.05c0,.26-.1.53-.14.81a2,2,0,0,0,.85,2.31l0,1.8c0,.24-.36.57-1,.62-.42,0-1.59-.14-1.66.41s.85.65,1.17.68a6.74,6.74,0,0,0,2-.72c.4-.14.64-.32.66-.51l.18-2H7.8L8,16.43c0,.18.25.35.65.48a7.35,7.35,0,0,0,2,.68c.32,0,1.23-.25,1.18-.64s-1.24-.36-1.67-.39c-.6,0-.95-.36-.95-.59l0-1.72A2.23,2.23,0,0,0,10,12a7.4,7.4,0,0,0-.11-.84,7.79,7.79,0,0,0,2,2.08c.38,0,.2-.81.09-1.14A11.89,11.89,0,0,0,9.48,8.34a3.54,3.54,0,0,0,1.76-2.19c.11.21.23.34.32.25.64-.59.73.26,1.58.48.3.07.13-1,2-1.76C15.65,4.89,13.32,4.79,12.42,4.49ZM8.8,3.67a.79.79,0,1,1-.75.78A.77.77,0,0,1,8.8,3.67Zm-2.55,0a.79.79,0,1,1-.76.78A.77.77,0,0,1,6.25,3.67Zm1.4,4.39c-1.25.1-2.85-.6-2.85-1.87,0-.59,1.6-.13,2.85-.13s2.6-.46,2.63.13C10.31,7,9.11,7.94,7.65,8.06Z" fill="#f9ba00"/></svg>