<svg xmlns="http://www.w3.org/2000/svg" xmlns:xlink="http://www.w3.org/1999/xlink" width="413.23" height="483.1" viewBox="0 0 413.23 483.1"><defs><clipPath id="a"><path d="M281.21,166.39c.94,21.68-31.85,47.81-71.5,51.06-34.13,2.8-77.55-16.45-77.55-51.06,0-15.94,43.37-3.43,77.55-3.43S280.51,150.48,281.21,166.39Z" fill="#321f00" stroke="#f9ba00" stroke-miterlimit="10" stroke-width="4.65"/></clipPath></defs><title>movshoHearts</title><path d="M177.36,86.14l-1-11.78a8.48,8.48,0,0,0-4.17-7L127.81,44.56l2.41-5.6L176.5,63.14A8.59,8.59,0,0,1,180.67,70l1.53,15.15Z" fill="#f9ba00"/><polygon points="209.74 88.47 204.73 88.47 205.35 56.65 204.73 23.7 209.74 23.7 209.11 56.65 209.74 88.47" fill="#f9ba00"/><path d="M235.51,86.64l1.3-13.39A8.47,8.47,0,0,1,241,66.44l44.46-22.88L283,38,236.65,62.18a8.55,8.55,0,0,0-4.16,6.66l-2,16.3Z" fill="#f9ba00"/><path d="M215.48,25.28H199a1.46,1.46,0,0,1-1.47-1.16L193.75,1.57A1.42,1.42,0,0,1,195.23,0h24a1.41,1.41,0,0,1,1.47,1.58L217,24.12A1.46,1.46,0,0,1,215.48,25.28Z" fill="#314fae"/><path d="M286.64,46.36,281.31,34.5a1.16,1.16,0,0,1,.43-1.46l16.39-10.6a1.17,1.17,0,0,1,1.7.5l7.75,17.24a1.17,1.17,0,0,1-.75,1.61L288,47A1.18,1.18,0,0,1,286.64,46.36Z" fill="#314fae"/><path d="M126.72,47.47l5.34-11.86a1.18,1.18,0,0,0-.43-1.46l-16.39-10.6a1.16,1.16,0,0,0-1.7.51L105.78,41.3a1.18,1.18,0,0,0,.76,1.61l18.8,5.21A1.17,1.17,0,0,0,126.72,47.47Z" fill="#314fae"/><path d="M338,120.18c-13-4.43-27.74,6.29-37.63,1.92-26.23-11.54-51.2-50-93.72-50s-67.48,38.51-93.72,50.05c-9.9,4.37-24.59-6.35-37.64-1.92-24.55,8.34-87.91,10.87-73,17.34,49.84,21.66,45.29,49.66,53.32,47.66,23.18-5.77,25.5-28.89,42.89-13,2.68,2.44,5.74-1,8.89-6.66,5.64,25,26.12,49.37,54,62.7-19.67,23.61-50,54.46-64.94,99-3,9-7.8,32.63,2.49,31.27,8-1,30.83-27.1,53.39-56-1.52,7.1-2.83,14.49-4,22.06-5.16,34,6,53.07,23.12,62.88-.31,13.46-.89,38.67-1.13,49-.15,6.59-9.73,15.69-26.05,17-11.47.91-43.27-3.8-45.24,11.24-1.5,11.45,23.31,17.48,32,18.33,14.22,1.38,55.25-19.46,55.25-19.46,10.88-3.84,17.27-8.89,17.77-14.05l5.12-53.17,1.16,0,1.92,0,4.92,48.82c.49,4.87,6.88,9.63,17.75,13.24,0,0,41,19.62,55.22,18.3,8.72-.81,33.53-6.54,32.05-17.35-1.95-14.19-33.76-9.71-45.23-10.55-16.32-1.2-25.88-9.78-26-16-.23-9.93-.8-34.3-1.09-46.85,15.48-10.36,25.35-29.41,22.51-61.39a223.57,223.57,0,0,0-3.18-22.76c22.73,29.2,45.86,55.66,53.94,56.73,10.28,1.35,5.51-22.25,2.48-31.28-15.6-46.48-48.07-78-67.6-102.18,24.76-13.8,42.71-36.42,47.94-59.56,3.14,5.64,6.2,9.1,8.88,6.66,17.38-15.89,19.7,7.23,42.89,13,8,2,3.47-26,53.32-47.66C425.88,131.05,362.52,128.52,338,120.18Z" fill="#f9ba00"/><path d="M93.9,161.77c-10.8-9.87-12.24,4.48-26.64,8.07-5,1.25-2.16-16.15-33.12-29.61-9.25-4,30.11-5.58,45.36-10.76,15.84-5.39,35.59,4.83,29.52,9.87C104.7,142.92,98.42,165.9,93.9,161.77Z" fill="#314fae"/><path d="M320.5,161.77c10.8-9.87,12.24,4.48,26.64,8.07,5,1.25,2.16-16.15,33.12-29.61,9.24-4-30.11-5.58-45.36-10.76-15.84-5.39-35.59,4.83-29.52,9.87C309.7,142.92,316,165.9,320.5,161.77Z" fill="#314fae"/><path d="M281.21,166.39c.94,21.68-31.85,47.81-71.5,51.06-34.13,2.8-77.55-16.45-77.55-51.06,0-15.94,43.37-3.43,77.55-3.43S280.51,150.48,281.21,166.39Z" fill="#321f00"/><g clip-path="url(#a)"><ellipse cx="202.28" cy="206.16" rx="45.02" ry="24.49" fill="#742900"/><path d="M178.41,157.18c0,5.06-3.38,11.38-12.3,11.38S151,159.77,151,154.71s2.34-6.68,11.26-6.68S178.41,152.13,178.41,157.18Z" fill="#e2eff9"/><path d="M201.78,160.49c0,5-3.24,14.58-12.16,14.58s-15.26-12-15.26-17,2.35-6.69,11.27-6.69S201.78,155.43,201.78,160.49Z" fill="#e2eff9"/><path d="M257.7,216.9c0-5.06-12.78-11-21.7-11s-5.72,8.44-5.72,13.5,2.35,6.68,11.27,6.68S257.7,222,257.7,216.9Z" fill="#e2eff9"/><path d="M202.29,222.52c0-5.05,3-17.89-5.93-17.89s-17.08,10.24-17.08,15.3,2.34,6.68,11.26,6.68S202.29,227.58,202.29,222.52Z" fill="#e2eff9"/><path d="M206,222.52c0-5.05-3-17.89,5.93-17.89S229,214.87,229,219.93s-2.35,6.68-11.27,6.68S206,227.58,206,222.52Z" fill="#e2eff9"/><path d="M202.8,160.45C202.8,165.51,206,175,215,175s15.25-12,15.25-17-2.34-6.69-11.26-6.69S202.8,155.4,202.8,160.45Z" fill="#e2eff9"/><path d="M150.05,217.41c0-5.06,12.78-11,21.7-11s5.72,8.43,5.72,13.49-2.35,6.68-11.27,6.68S150.05,222.47,150.05,217.41Z" fill="#e2eff9"/><path d="M228.54,158.48c0,5.05,3.37,11.37,12.29,11.37S256,161.06,256,156s-2.34-6.69-11.26-6.69S228.54,153.42,228.54,158.48Z" fill="#e2eff9"/></g><path d="M281.21,166.39c.94,21.68-31.85,47.81-71.5,51.06-34.13,2.8-77.55-16.45-77.55-51.06,0-15.94,43.37-3.43,77.55-3.43S280.51,150.48,281.21,166.39Z" fill="none" stroke="#f9ba00" stroke-miterlimit="10" stroke-width="4.65"/><path d="M261.7,322c0-34.44-22.36-81.38-50.75-81.38s-52,46.94-52,81.38,23,62.36,51.39,62.36S261.7,356.43,261.7,322Z" fill="#314fae"/><g opacity="0.72"><circle cx="122.5" cy="156.4" r="11.06" fill="#ff110a"/><circle cx="291.53" cy="156.4" r="11.06" fill="#ff110a"/></g><path d="M170,108.39c-4.86-1.58-37.29-11.33-20.34,15.79l.06.08,19.57,25.66a1.8,1.8,0,0,0,2.63,0l19.56-25.66s.05-.05.06-.08c17-27.12-15.48-17.37-20.34-15.79A1.89,1.89,0,0,1,170,108.39Z" fill="#de2e00"/><path d="M242,108.39c-4.86-1.58-37.29-11.33-20.34,15.79l.06.08,19.57,25.66a1.8,1.8,0,0,0,2.63,0l19.56-25.66a.21.21,0,0,0,.06-.08c17-27.12-15.48-17.37-20.34-15.79A1.89,1.89,0,0,1,242,108.39Z" fill="#de2e00"/></svg>