<svg xmlns="http://www.w3.org/2000/svg" width="116.78" height="134.34" viewBox="0 0 116.78 134.34"><title>navIcon</title><rect y="42.49" width="116.78" height="22.18" fill="#f9ba00"/><rect y="77.33" width="116.78" height="22.18" fill="#f9ba00"/><rect y="112.16" width="116.78" height="22.18" fill="#f9ba00"/><path d="M31.93,0V29.37H23.56v-21l-5.43,21H12.41l-5.65-21v21H0V0H11.78L16,15.6,20.11,0Z" fill="#f9ba00"/><path d="M59.16,22.36v7H37.06V0h22.1V6.78H45.9V11H56.62v6.52H45.9v4.8Z" fill="#f9ba00"/><path d="M87.84,29.37H80.5l-8-13a50.35,50.35,0,0,1-3.13-6.07A20.08,20.08,0,0,1,70,15.15V29.37H62.73V0h8.52l6.84,10.76a40.73,40.73,0,0,1,3.1,5.64,42.68,42.68,0,0,1-.69-7.71V0h7.34Z" fill="#f9ba00"/><path d="M116.78,0V19.45q0,5.54-3.28,8A14,14,0,0,1,105,29.83,15.41,15.41,0,0,1,96,27.5q-3.37-2.33-3.37-7.57V0h9.17V18.87a4.43,4.43,0,0,0,.89,3.08,3.67,3.67,0,0,0,2.84,1,4.73,4.73,0,0,0,2.67-.7,2.71,2.71,0,0,0,1.25-1.58,19.31,19.31,0,0,0,.2-3.45V0Z" fill="#f9ba00"/></svg>