<svg xmlns="http://www.w3.org/2000/svg" width="126.6" height="126.95" viewBox="0 0 126.6 126.95"><title>menuBtn</title><rect x="3.85" y="60.98" width="122.75" height="65.98" rx="2.65" fill="#001638"/><path d="M119.76,19.38,5.81,67.92a1.74,1.74,0,0,1-2.38-1.24L0,50.64a1.74,1.74,0,0,1,1-2L115,.14a1.75,1.75,0,0,1,2.39,1.24l3.39,16A1.75,1.75,0,0,1,119.76,19.38Z" fill="#001638"/><polygon points="26.61 59.06 12.12 65.24 7.99 45.73 22.48 39.56 26.61 59.06" fill="#314fae"/><polygon points="56.35 46.39 41.85 52.57 37.73 33.06 52.22 26.89 56.35 46.39" fill="#314fae"/><polygon points="85.84 33.83 71.34 40 67.22 20.5 81.71 14.32 85.84 33.83" fill="#314fae"/><polygon points="116.04 20.99 101.55 27.16 97.42 7.66 111.92 1.48 116.04 20.99" fill="#314fae"/><path d="M25,107.09,18.44,85.36v21.73H13.21V80.44h9.72l4.68,16,4.92-16h9.75v26.65H36V85.36l-6.71,21.73Z" fill="#f9ba00"/><path d="M66.63,85.51H53.94V91h10v5h-10v5.81H66.63v5.28h-19V80.44h19Z" fill="#f9ba00"/><path d="M90.88,80.44v26.65H85.55l-10.43-18c0,.46,0,.76,0,.9a11.12,11.12,0,0,1,.08,1.15v16H70.38V80.44h6.73l9.06,15.71c-.07-.78-.11-1.37-.11-1.77V80.44Z" fill="#f9ba00"/><path d="M117.24,80.44V97a14.89,14.89,0,0,1-.92,6,7.11,7.11,0,0,1-3.39,3.22,13.87,13.87,0,0,1-6.31,1.26,13.82,13.82,0,0,1-6.13-1.14,7.53,7.53,0,0,1-3.4-3.22A13.05,13.05,0,0,1,96,97V80.44h6.77V97a10.15,10.15,0,0,0,.36,3.16,2.9,2.9,0,0,0,1.45,1.61,5.42,5.42,0,0,0,2.66.6,6,6,0,0,0,2.86-.59,2.94,2.94,0,0,0,1.47-1.55,10.19,10.19,0,0,0,.36-3.23V80.44Z" fill="#f9ba00"/></svg>