<svg xmlns="http://www.w3.org/2000/svg" xmlns:xlink="http://www.w3.org/1999/xlink" width="266.88" height="265.58" viewBox="0 0 266.88 265.58"><defs><linearGradient id="a" x1="0.05" y1="132.79" x2="266.82" y2="132.79" gradientUnits="userSpaceOnUse"><stop offset="0" stop-color="#ffe800"/><stop offset="1" stop-color="blue"/></linearGradient></defs><title>viewAllShows</title><rect x="0.05" y="-0.59" width="266.77" height="266.77" opacity="0.2" fill="url(#a)"/><path d="M125.93,158.21l-.26-3a2.19,2.19,0,0,0-1.07-1.78l-11.32-5.84.62-1.44,11.85,6.19a2.21,2.21,0,0,1,1.08,1.76l.38,3.87Z" fill="#f9ba00"/><polygon points="134.23 158.81 132.94 158.81 133.11 150.67 132.94 142.25 134.23 142.25 134.06 150.67 134.23 158.81" fill="#f9ba00"/><path d="M140.81,158.31l.34-3.43a2.14,2.14,0,0,1,1.06-1.73l11.37-5.83-.62-1.43-11.85,6.2a2.19,2.19,0,0,0-1.07,1.7l-.5,4.17Z" fill="#f9ba00"/><path d="M135.69,142.65h-4.23a.38.38,0,0,1-.38-.3l-1-5.76a.36.36,0,0,1,.31-.4h6.21a.36.36,0,0,1,.38.33.15.15,0,0,1,0,.07l-.95,5.76A.38.38,0,0,1,135.69,142.65Z" fill="#e90000"/><path d="M153.89,148l-1.36-3a.3.3,0,0,1,.11-.38l4.18-2.71a.3.3,0,0,1,.41.08l0,.05,2,4.41a.3.3,0,0,1-.15.4h0l-4.81,1.34A.29.29,0,0,1,153.89,148Z" fill="#e90000"/><path d="M113,148.33l1.36-3a.3.3,0,0,0-.11-.37l-4.19-2.71a.31.31,0,0,0-.42.09l0,0-2,4.4a.3.3,0,0,0,.15.4l0,0,4.8,1.33A.31.31,0,0,0,113,148.33Z" fill="#e90000"/><path d="M167,166.92c-3.34-1.14-7.11,1.58-9.63.49-6.71-2.95-13.09-12.8-24-12.8s-17.26,9.85-24,12.8c-2.54,1.11-6.33-1.63-9.63-.49-6.28,2.13-22.48,2.77-18.68,4.43,12.75,5.53,11.58,12.7,13.64,12.19,5.93-1.48,6.52-7.39,11-3.32.68.62,1.47-.27,2.27-1.71,1.44,6.39,6.68,12.65,13.81,16-5,6-12.79,13.92-16.6,25.28-.79,2.31-2,8.35.64,8,2-.27,7.91-6.93,13.66-14.33-.4,1.82-.73,3.71-1,5.65-1.32,8.69,1.52,13.56,5.91,16.08-.08,3.43-.23,9.88-.29,12.53,0,1.69-2.48,4-6.66,4.35-2.94.23-11.07-1-11.57,2.87-.38,2.93,6,4.48,8.19,4.69,3.64.35,14.12-5,14.12-5,2.79-1,4.42-2.27,4.55-3.59l1.31-13.6h.79L133.44,250c.13,1.24,4.46,2.46,7.23,3.38,0,0,10.49,5,14.12,4.68,2.24-.21,8.58-1.68,8.2-4.43-.5-3.64-8.63-2.49-11.56-2.71-4.18-.31-6.63-2.49-6.66-4.09-.06-2.54-.2-8.76-.28-12,3.95-2.65,6.49-7.52,5.75-15.69a54.43,54.43,0,0,0-.79-5.83c5.81,7.47,11.73,14.23,13.79,14.51,2.63.35,1.42-5.69.64-8-4-11.85-12.3-20-17.29-26.13,6.32-3.52,10.92-9.31,12.26-15.23.79,1.44,1.58,2.33,2.27,1.71,4.44-4.07,5,1.84,11,3.32,2.07.51.9-6.65,13.64-12.19C189.5,169.69,173.29,169.05,167,166.92Z"/><path d="M104.59,177.56c-2.77-2.53-3.16,1.14-6.81,2.06-1.28.31-.55-4.13-8.47-7.57-2.37-1,7.69-1.43,11.6-2.76s9.09,1.24,7.54,2.53C107.36,172.74,105.76,178.61,104.59,177.56Z" fill="#e90000"/><path d="M162.55,177.56c2.76-2.53,3.16,1.14,6.81,2.06,1.28.31.55-4.13,8.47-7.57,2.37-1-7.7-1.43-11.6-2.76s-9.1,1.24-7.55,2.53C159.79,172.74,161.39,178.61,162.55,177.56Z" fill="#e90000"/><ellipse cx="124.44" cy="166.69" rx="5.26" ry="5.45" fill="#fff" stroke="#e90000" stroke-miterlimit="10" stroke-width="0.77"/><ellipse cx="142.22" cy="166.69" rx="5.26" ry="5.45" fill="#fff" stroke="#e90000" stroke-miterlimit="10" stroke-width="0.77"/><g opacity="0.72"><circle cx="111.92" cy="176.18" r="2.83" fill="#ff110a"/><circle cx="155.14" cy="176.18" r="2.83" fill="#ff110a"/></g><circle cx="134.92" cy="212.18" r="11.02" fill="none" stroke="#e90000" stroke-miterlimit="10" stroke-width="0.81"/><circle cx="134.92" cy="212.18" r="10.21" fill="none" stroke="#e90000" stroke-miterlimit="10" stroke-width="0.81"/><path d="M142.4,225.43c-.79,0-1.21-.79-1.48-1.43a2.61,2.61,0,0,1-.22-.72c0-.31-.18-1-.31-1.65-.22-1.07-.46-2.28-.55-2.93a17.47,17.47,0,0,0-1.32-3.69,4.16,4.16,0,0,1-1,.79v.07a1,1,0,0,1-.26.72.92.92,0,0,1-.63.26h0l-.06.07a.79.79,0,0,1-.35.23.86.86,0,0,1-.75.43.8.8,0,0,1-.61-.28h-.23a.85.85,0,0,1-.38.09.87.87,0,0,1-.79-.51.9.9,0,0,1-.67-.73v-.07a.82.82,0,0,1-.53-.48,3.68,3.68,0,0,1-.59-.45,17.06,17.06,0,0,0-1.22,3.45c-.08.63-.33,1.82-.53,2.86-.14.67-.26,1.3-.31,1.58a2.78,2.78,0,0,1-.21.71c-.26.6-.71,1.41-1.47,1.41a1,1,0,0,1-.47-.11,1.1,1.1,0,0,1-.53-.7,1.69,1.69,0,0,1-.2-.57.61.61,0,0,0-.08-.26,2.41,2.41,0,0,1,0-1.79l3.17-8.77h-3.2a5.05,5.05,0,0,1-1.1.18,1.12,1.12,0,0,1-.89-.36,1,1,0,0,1-.22-.79,2.73,2.73,0,0,1,.14-.51v-.06a1.17,1.17,0,0,1,1.16-.79h.11l3.8.08c-2.86-3.36-3-5-3.07-5.64v-.43a1.33,1.33,0,0,1,0-.34,1,1,0,1,1,2.09,0h0v.29a13,13,0,0,0,1.58,3.16l.18.25a5.17,5.17,0,0,0,.42.51c-.93-3.55-1.19-6.16-.79-7.64v-.13a2.73,2.73,0,0,1,.4-1,1.13,1.13,0,0,1,.94-.52,1,1,0,0,1,.3,0,1,1,0,0,1,.69.64,1.19,1.19,0,0,1,0,.79.53.53,0,0,1-.05.15,1.93,1.93,0,0,1,0,.34,18,18,0,0,0,.68,7.27,1.08,1.08,0,0,1,1.09-.79,1.38,1.38,0,0,1,1,.41,1.41,1.41,0,0,1,1.1-.56,1.14,1.14,0,0,1,1.13.79,18.48,18.48,0,0,0,.71-7.5v-.35c0-.13,0-.1-.06-.15a1.15,1.15,0,0,1,.74-1.46,1,1,0,0,1,.3-.05,1.16,1.16,0,0,1,.94.53,2.8,2.8,0,0,1,.41,1v.11c.46,1.54.18,4.25-.79,7.9a7.45,7.45,0,0,0,.48-.58,1.81,1.81,0,0,1,.19-.25,13.54,13.54,0,0,0,1.63-3.25.65.65,0,0,0,0-.13.54.54,0,0,1,0-.18,1,1,0,0,1,2.1,0,1.07,1.07,0,0,1-.06.35v.44c-.06.66-.21,2.37-3.16,5.8l4-.08h.11a1.15,1.15,0,0,1,1.17.83v.06a3,3,0,0,1,.13.52,1,1,0,0,1-.21.79,1.13,1.13,0,0,1-.9.36,4.77,4.77,0,0,1-1.13-.19h-.17l-3.1,0,3.21,9a2.39,2.39,0,0,1,0,1.82,1.11,1.11,0,0,0-.07.26,1.63,1.63,0,0,1-.21.57,1.09,1.09,0,0,1-.53.72,1.12,1.12,0,0,1-.47.11Z" fill="#e90000"/><path d="M145.21,212.13a2.54,2.54,0,0,0-.14-.47c-.06-.23-.3-.25-.45-.24l-5.2.11a.28.28,0,0,1-.28-.28.29.29,0,0,1,.07-.18c3.8-4.17,3.74-5.86,3.79-6.37a3.08,3.08,0,0,0,0-.43.27.27,0,0,0,.05-.18.23.23,0,0,0-.19-.27.24.24,0,0,0-.28.19v.08a.41.41,0,0,0,0,.18,4,4,0,0,1-.12.43,12.84,12.84,0,0,1-1.92,3.67,29.52,29.52,0,0,1-2.25,2.49.3.3,0,0,1-.43,0h0c2.42-7.75,1.58-9.81,1.58-10.09a2.54,2.54,0,0,0-.32-.87.33.33,0,0,0-.35-.16.33.33,0,0,0-.17.45h0a.5.5,0,0,0,.1.19,3.23,3.23,0,0,0,0,.44,17.87,17.87,0,0,1-1.16,8.86h0a.8.8,0,0,1-1,.35h0l-.07-.57c0-.54-.06-1-.45-1h0c-.38,0-.69.44-.69,1h0a.34.34,0,0,1-.32.34H135s-.28,0-.31-.16v0c0-.52-.27-1-.65-1s-.43.48-.43,1l0,.37a.21.21,0,0,1-.14.16h0a.68.68,0,0,1-.79-.3h0a17.84,17.84,0,0,1-1.14-8.7,1.55,1.55,0,0,0,0-.43.32.32,0,0,0,.1-.18.31.31,0,0,0-.16-.43h0a.29.29,0,0,0-.33.17,2.26,2.26,0,0,0-.32.84c-.07.26-.84,2.26,1.47,9.72h0a.36.36,0,0,1-.51,0,27.57,27.57,0,0,1-2.06-2.27c-.59-.79-.7-.79-1.88-3.59a2.22,2.22,0,0,0-.12-.42.26.26,0,0,0,0-.17.23.23,0,0,0-.17-.29.24.24,0,0,0-.29.17.24.24,0,0,0,0,.12.34.34,0,0,0,0,.17,2.94,2.94,0,0,0,0,.42c.06.49,0,2.14,3.65,6.16a.3.3,0,0,1,0,.43.27.27,0,0,1-.2.07l-5-.1a.39.39,0,0,0-.45.24,3.88,3.88,0,0,0-.14.45c-.06.45,1.38,0,1.53,0h3.72a.43.43,0,0,1,.33.51v0h0l-3.35,9.34a1.58,1.58,0,0,0,0,1.17c.14.31.12.66.25.79s.06.33.18.39c.29.15.64-.48.79-.9a1.75,1.75,0,0,0,.14-.51c.13-.79.71-3.43.84-4.44a22.71,22.71,0,0,1,1.64-4.46.27.27,0,0,1,.37-.13.28.28,0,0,1,.1.09,3.31,3.31,0,0,0,1.22,1.07v.15c0,.09.08.12.12,0l0-.11.31.13.13.71c0,.11.12.11.14,0l.06-.44c0-.11.1-.12.12,0l.28,1c0,.09.11.08.13,0l.11-.62a.06.06,0,0,1,.09,0,0,0,0,0,1,0,0l.11.54c0,.11.12.1.13,0l.05-.54c0-.1.08-.14.12-.06l.49.94c0,.08.09-.08.09-.08v-.84c0-.13.1-.17.13-.07l.2.58c0,.11.14.05.13-.08V216c0-.14.09-.2.13-.08l.07.24c0,.12.14.07.13-.06v-.57h.12l.18.57c0,.12.14.06.14-.07v-.6a3.55,3.55,0,0,0,1.73-1.38.31.31,0,0,1,.42-.13.35.35,0,0,1,.14.13,23.58,23.58,0,0,1,1.72,4.67c.13,1,.73,3.75.85,4.56a2.46,2.46,0,0,0,.15.51c.19.43.54,1.07.85.92.12-.06.13-.34.18-.39s.12-.47.26-.79a1.54,1.54,0,0,0,0-1.19l-3.44-9.57h0a.36.36,0,0,1,.21-.46.28.28,0,0,1,.13,0l3.8-.06C143.8,212.1,145.28,212.59,145.21,212.13Z" fill="#e90000"/><polyline points="42.45 3.16 196.75 262.61 106.06 6.84 224.78 265.65 0.05 53.66 238.56 265.65 124.61 2.63 249.7 265.65 153.76 0 266.13 249.34 182.67 1.45 264.01 200.95 232.74 3.16 265.17 165.61 265.07 2.63 41.92 266.18" fill="none" stroke="#fff" stroke-miterlimit="10" stroke-width="0.38"/><polyline points="94.66 2.6 0.05 266.18 61.18 2.6 66.49 266.18 115.93 2.6 71.13 259.91 140.38 -0.59 85.57 258.09 158.45 2.6 126.35 239.85 172.8 -0.06 140.02 238.59 190.87 -0.59 265.81 265.64 0.05 -0.59 266.88 183.11" fill="none" stroke="#fff" stroke-miterlimit="10" stroke-width="0.39"/><rect x="0.05" y="-0.59" width="266.77" height="266.77" opacity="0.45"/></svg>